<svg width="237" height="49" viewBox="0 0 237 49" fill="none" xmlns="http://www.w3.org/2000/svg">
<path d="M27.168 20.92H29.664C29.616 21.256 29.592 21.472 29.592 21.856C29.592 24.88 30.456 27.76 32.088 30.088C32.88 31.216 33.672 31.984 35.232 33.064C34.728 33.832 34.344 34.456 33.744 35.584C32.568 34.576 31.728 33.712 30.984 32.704C29.784 31.096 29.208 29.848 28.632 27.568C28.296 29.536 27.888 30.688 27 32.08C26.064 33.592 25.2 34.528 23.76 35.584C23.112 34.576 23.016 34.456 22.536 33.952C22.176 33.928 22.056 33.928 21.48 33.928H17.736V35.128H15.168C15.264 34.336 15.312 33.568 15.312 32.608V27.376C15.168 27.52 14.664 27.928 14.04 28.432C13.752 27.472 13.416 26.704 12.912 25.888C13.752 25.312 14.64 24.568 15.312 23.824C16.44 22.648 17.256 21.328 18.048 19.36H20.424C21.552 21.736 22.944 23.32 25.296 24.928C24.624 25.816 24.384 26.2 23.88 27.232C23.232 26.704 23.232 26.704 23.112 26.584C23.112 26.944 23.112 27.04 23.112 27.208V32.176C23.112 32.392 23.112 32.416 23.112 32.632C24.744 31.192 25.44 30.256 26.112 28.576C26.808 26.848 27.24 24.328 27.24 21.928C27.24 21.616 27.216 21.304 27.168 20.92ZM17.16 25.384H21.624C21.816 25.384 21.816 25.384 21.888 25.384C20.856 24.304 20.112 23.248 19.344 21.712C18.72 23.2 18.24 24.016 17.16 25.384ZM17.712 27.616V31.72H20.784V27.616H17.712ZM28.344 17.368H31.848C32.952 17.368 33.456 17.344 33.864 17.248L34.944 18.496C34.776 18.928 34.776 18.928 34.392 20.44C33.888 22.288 33.192 23.968 32.4 25.24C31.704 24.64 31.152 24.256 30.408 23.824C31.368 22.336 31.752 21.472 32.28 19.576H27.576C26.76 21.544 26.064 22.888 25.176 24.16C24.528 23.464 24.12 23.104 23.256 22.552C24.504 20.848 25.344 19.096 25.968 16.912C26.328 15.664 26.496 14.8 26.544 14.008L29.16 14.44C28.896 15.304 28.752 15.856 28.68 16.12C28.488 16.816 28.392 17.176 28.344 17.368ZM16.728 14.488L18.816 15.64C17.592 17.968 16.584 19.264 14.472 21.136C14.16 20.392 13.752 19.768 13.104 18.952C14.928 17.464 15.696 16.504 16.728 14.488ZM19.704 15.64L21.696 14.488C22.632 16.072 23.472 17.056 24.864 18.16C24.336 18.856 23.904 19.504 23.496 20.296C21.72 18.712 20.904 17.704 19.704 15.64ZM40.4237 15.04C41.6477 15.088 42.5837 15.184 43.3037 15.376C43.9037 15.544 44.0717 15.664 44.0717 15.928C44.0717 16.096 44.0477 16.168 43.9277 16.504C43.6637 17.2 43.4717 18.424 43.3757 20.104C43.1837 23.968 43.0877 26.968 43.0877 29.344C43.0877 30.112 43.1597 30.688 43.2797 31.072C43.5437 31.864 44.3837 32.272 45.7277 32.272C47.8877 32.272 49.9277 31.384 51.7997 29.632C52.6637 28.816 53.1917 28.168 54.0797 26.848C54.2237 27.616 54.4157 28.12 54.9437 29.2C55.0157 29.392 55.0637 29.536 55.0637 29.752C55.0637 30.184 54.6077 30.76 53.4077 31.84C51.0317 33.976 48.3917 35.08 45.6317 35.08C43.8077 35.08 42.4637 34.624 41.5997 33.76C40.6877 32.8 40.3277 31.552 40.3277 29.176C40.3277 27.304 40.3517 25.864 40.5437 20.272C40.5677 19.432 40.5917 18.928 40.5917 18.712C40.5917 16.672 40.5677 16.072 40.4237 15.04ZM62.0047 22.528C60.2287 22.912 59.2447 23.152 59.0287 23.224C58.8367 23.272 58.7407 23.32 58.5967 23.392C58.4767 23.464 58.4047 23.488 58.2847 23.488C57.7807 23.488 57.3967 22.552 57.1087 20.776C57.3007 20.8 57.4687 20.8 57.5647 20.8C58.5727 20.8 61.1407 20.488 62.6768 20.176C63.1808 18.064 63.4447 16.48 63.4447 15.328C63.4447 15.232 63.4447 15.112 63.4207 14.92C64.4528 15.04 65.4367 15.256 66.1088 15.52C66.4928 15.664 66.6848 15.88 66.6848 16.12C66.6848 16.24 66.6608 16.312 66.5407 16.504C66.1808 17.152 66.1808 17.152 65.4367 19.792C66.0128 19.72 66.6608 19.672 67.0687 19.672C68.0527 19.672 68.8207 19.864 69.3727 20.248C70.3328 20.944 70.8127 22.36 70.8127 24.544C70.8127 28.12 70.1647 31.168 69.0607 32.68C68.2928 33.736 67.2847 34.24 65.8687 34.24C65.0048 34.24 64.1888 34.12 63.9488 33.976C63.7567 33.856 63.7567 33.856 63.6848 32.968C63.6128 32.32 63.4688 31.768 63.1808 31.096C64.4287 31.504 64.7408 31.576 65.5088 31.576C66.6608 31.576 67.1407 31.024 67.6688 29.104C68.0287 27.832 68.2208 26.176 68.2208 24.424C68.2208 22.552 67.7648 21.88 66.4928 21.88C66.0608 21.88 65.3647 21.928 64.8127 22.024C64.7408 22.288 64.7167 22.312 64.6208 22.648C63.9488 25.096 62.7247 28.336 61.5007 30.928C60.2287 33.544 59.9167 34.072 59.6047 34.072C59.4127 34.072 58.7647 33.736 58.0687 33.28C57.5167 32.944 57.3727 32.8 57.3727 32.608C57.3727 32.488 57.3727 32.488 58.3567 30.928C59.6767 28.888 61.4048 24.88 62.0047 22.528ZM71.3888 20.824C71.2928 20.68 71.2687 20.608 71.2687 20.536C71.2687 20.368 71.4847 20.152 72.1808 19.6C72.6608 19.24 72.9008 19.096 73.0688 19.096C73.2128 19.096 73.3328 19.168 73.6448 19.48C75.0608 20.848 76.3808 22.672 77.1488 24.256C77.3888 24.784 77.5328 25.12 77.5328 25.264C77.5328 25.504 77.4608 25.576 76.6927 26.2C76.2128 26.584 75.6608 26.896 75.4688 26.896C75.3008 26.896 75.2288 26.824 75.0608 26.416C74.5807 25.24 74.1248 24.328 73.5488 23.44C72.9247 22.48 72.8047 22.336 71.3888 20.824ZM80.6811 23.992C81.8571 23.824 82.2651 23.728 84.2571 23.176C87.2811 22.336 89.4651 21.952 91.0971 21.952C94.4811 21.952 96.5691 23.8 96.5691 26.8C96.5691 28.6 95.8251 30.184 94.4091 31.384C93.4731 32.176 92.0811 32.848 90.2331 33.4C89.2011 33.688 88.0971 33.904 87.6171 33.904C87.3291 33.904 87.1851 33.832 87.0891 33.592C86.7531 32.752 86.3691 32.152 85.8651 31.648C91.1451 31.096 93.8331 29.416 93.8331 26.68C93.8331 25.288 92.6811 24.208 91.1931 24.208C88.6011 24.208 85.7691 25.072 82.7931 26.728C82.5531 26.848 82.4091 26.92 82.3131 26.92C81.9051 26.92 81.2331 25.72 80.6811 23.992ZM104.332 21.688C103.276 21.832 102.532 21.904 101.068 22.024C101.02 22.024 100.972 22.024 100.924 22.024C100.804 22.048 100.708 22.048 100.66 22.048C100.444 22.048 100.324 21.952 100.252 21.64C100.108 21.04 100.012 20.296 99.9637 19.384C100.3 19.408 100.564 19.408 100.732 19.408C102.028 19.408 103.54 19.312 104.812 19.144C105.052 17.56 105.172 16.336 105.172 15.352C105.172 15.232 105.172 15.04 105.172 14.8C107.956 15.16 108.484 15.328 108.46 15.76C108.46 15.88 108.412 15.952 108.316 16.168C108.028 16.72 108.004 16.792 107.62 18.688C108.556 18.52 109.756 18.208 110.236 18.04C110.332 17.992 110.356 17.992 110.428 17.992C110.644 17.992 110.692 18.088 110.884 18.928C110.98 19.408 111.076 20.08 111.076 20.272C111.076 20.44 111.004 20.536 110.788 20.584C110.356 20.728 110.356 20.728 107.068 21.304C105.964 26.176 104.812 29.776 102.964 34.096C102.844 34.408 102.724 34.528 102.58 34.528C102.268 34.528 101.428 34.192 100.612 33.736C100.204 33.52 100.084 33.4 100.084 33.28C100.084 33.184 100.156 33.016 100.276 32.776C102.1 29.32 103.42 25.648 104.332 21.688ZM110.164 29.296C110.428 30.304 110.716 30.736 111.316 31.144C112.012 31.6 113.02 31.816 114.436 31.816C115.996 31.816 117.34 31.672 118.108 31.432C118.3 31.384 118.348 31.36 118.444 31.36C118.66 31.36 118.756 31.432 118.828 31.648C118.996 32.152 119.116 33.136 119.116 33.88C119.116 34.192 119.02 34.312 118.708 34.384C117.916 34.552 116.572 34.648 115.156 34.648C112.156 34.648 110.476 34.168 109.372 33.016C108.964 32.584 108.628 32.032 108.436 31.432C108.292 31.096 108.196 30.688 108.196 30.544C108.196 30.136 108.916 29.704 110.164 29.296ZM118.252 24.184C118.204 24.184 118.132 24.184 118.06 24.16C117.58 24.088 116.572 24.04 115.732 24.04C113.956 24.04 113.212 24.112 111.1 24.472C111.052 24.496 110.98 24.496 110.932 24.496C110.788 24.496 110.716 24.448 110.668 24.304C110.596 24.136 110.5 22.96 110.5 22.456C110.5 22.144 110.548 22 110.74 21.928C110.836 21.88 110.98 21.856 111.484 21.76C113.116 21.472 114.484 21.352 116.164 21.352C117.556 21.352 118.276 21.4 118.444 21.52C118.564 21.616 118.588 21.808 118.588 22.6C118.588 23.296 118.54 23.92 118.492 24.064C118.468 24.136 118.372 24.184 118.252 24.184ZM139.842 14.728C141.282 14.728 142.41 15.856 142.41 17.296C142.41 18.736 141.282 19.864 139.842 19.864C138.402 19.864 137.274 18.736 137.274 17.296C137.274 15.856 138.402 14.728 139.842 14.728ZM139.842 16.024C139.146 16.024 138.57 16.6 138.57 17.296C138.57 17.992 139.146 18.568 139.842 18.568C140.514 18.568 141.114 17.992 141.114 17.296C141.114 16.6 140.538 16.024 139.842 16.024ZM127.362 26.176C127.362 29.176 127.386 29.632 127.578 29.944C127.938 30.52 129.018 30.736 131.346 30.736C133.578 30.736 134.73 30.64 138.09 30.184C138.162 30.16 138.234 30.16 138.306 30.16C138.546 30.16 138.666 30.28 138.714 30.544C138.786 30.928 138.906 32.128 138.906 32.536C138.906 32.896 138.786 33.064 138.45 33.16C137.706 33.328 134.346 33.52 131.61 33.52C128.826 33.52 127.41 33.328 126.282 32.8C125.418 32.392 124.89 31.72 124.698 30.904C124.578 30.304 124.53 29.776 124.53 28.816C124.53 28.576 124.53 28.288 124.53 27.88C124.578 25.36 124.578 25.048 124.578 23.392C124.578 19.24 124.506 17.728 124.29 16.6C127.242 16.84 127.89 16.984 127.89 17.44C127.89 17.56 127.866 17.608 127.746 17.872C127.674 18.04 127.602 18.352 127.53 18.832C127.434 19.552 127.41 20.104 127.41 21.376C127.386 22.312 127.386 22.96 127.386 23.32C131.538 22.096 134.922 20.416 136.314 18.88C137.49 20.344 138.186 21.448 138.186 21.784C138.186 22 138.09 22.072 137.61 22.24C137.274 22.36 136.65 22.624 135.714 23.104C132.762 24.52 130.65 25.288 127.362 26.176ZM142.239 23.248C144.183 23.44 145.887 23.488 150.903 23.488C155.295 23.488 157.815 23.44 160.239 23.272C160.311 23.272 160.455 23.272 160.551 23.272C161.271 23.272 161.271 23.296 161.271 25.216C161.271 26.2 161.199 26.368 160.791 26.368C160.791 26.368 160.719 26.368 160.695 26.368C159.111 26.296 158.223 26.296 151.287 26.296C148.743 26.296 147.471 26.32 145.263 26.392C145.095 26.392 144.903 26.392 144.567 26.392C143.799 26.392 143.679 26.416 143.223 26.488C143.103 26.488 143.007 26.512 142.959 26.512C142.695 26.512 142.527 26.392 142.479 26.176C142.335 25.576 142.239 24.352 142.239 23.248ZM173.74 25.792C175.612 27.04 176.884 28 178.372 29.392C179.908 30.784 180.844 31.792 180.844 32.056C180.844 32.272 180.532 32.656 179.788 33.376C179.236 33.904 178.996 34.072 178.828 34.072C178.732 34.072 178.612 34.024 178.468 33.904C178.204 33.592 178.204 33.592 177.1 32.344C175.78 30.856 173.98 29.272 171.892 27.784C170.308 29.44 168.172 31.24 166.444 32.416C165.076 33.352 163.78 34.072 163.492 34.072C163.252 34.072 163.228 34.048 162.652 33.4C162.316 33.016 161.764 32.536 161.164 32.104C163.924 30.832 165.964 29.464 168.244 27.376C170.716 25.12 172.348 23.032 174.268 19.72C166.156 19.768 166.156 19.768 164.836 19.912C164.548 19.936 164.5 19.936 164.452 19.936C164.188 19.936 164.044 19.816 163.996 19.552C163.876 18.784 163.828 18.064 163.828 16.792C165.46 17.008 168.004 17.104 171.484 17.104C172.9 17.104 174.388 17.056 175.18 16.96C175.492 16.936 175.54 16.912 176.044 16.744C176.14 16.696 176.188 16.696 176.332 16.696C176.74 16.696 177.172 17.032 177.748 17.8C178.204 18.448 178.468 18.952 178.468 19.216C178.468 19.504 178.396 19.6 177.772 20.176C177.388 20.56 177.22 20.752 176.476 21.976C175.756 23.176 174.652 24.688 173.74 25.792ZM193.211 28.216V28.096C190.835 29.488 190.163 30.184 190.163 31.24C190.163 31.672 190.331 31.96 190.691 32.176C191.219 32.488 192.395 32.656 193.907 32.656C195.203 32.656 197.003 32.536 198.227 32.368C198.731 32.296 199.019 32.224 199.979 31.984C200.027 31.984 200.051 31.984 200.099 31.984C200.267 31.984 200.387 32.104 200.459 32.272C200.603 32.776 200.699 33.496 200.699 34.36C200.699 34.72 200.579 34.864 200.267 34.936C199.691 35.056 197.027 35.2 195.275 35.2C192.347 35.2 190.787 35.008 189.635 34.528C188.243 33.952 187.547 32.872 187.547 31.36C187.547 29.968 188.195 28.744 189.491 27.712C190.523 26.896 190.763 26.728 192.971 25.48C192.779 24.688 192.419 24.352 191.675 24.352C190.691 24.352 189.659 24.736 188.531 25.48C187.835 25.96 187.019 26.632 186.515 27.136C185.795 27.88 185.723 27.928 185.531 27.928C185.291 27.928 184.787 27.376 184.283 26.536C184.043 26.128 183.899 25.816 183.899 25.648C183.899 25.432 183.947 25.384 184.523 25.024C186.491 23.704 188.123 22.024 189.107 20.296C187.403 20.416 186.515 20.44 185.579 20.44C185.219 20.44 185.147 20.368 185.027 19.96C184.955 19.648 184.835 18.376 184.811 17.728C185.627 17.848 186.107 17.872 187.259 17.872C188.195 17.872 189.227 17.848 190.307 17.8C190.811 16.432 190.979 15.568 191.003 14.44C193.139 14.8 194.123 15.16 194.123 15.568C194.123 15.664 194.099 15.712 194.027 15.856C193.859 16.168 193.667 16.552 193.355 17.296C193.307 17.392 193.307 17.392 193.283 17.464C194.651 17.272 195.851 17.032 196.691 16.84C197.219 16.696 197.339 16.672 197.459 16.672C197.651 16.672 197.747 16.744 197.795 16.888C197.891 17.32 198.035 18.424 198.035 18.76C198.035 19.024 197.939 19.144 197.627 19.216C196.859 19.432 194.219 19.84 192.011 20.056C191.291 21.376 190.787 22.144 190.043 22.96C191.123 22.456 191.939 22.264 192.899 22.264C193.979 22.264 194.699 22.888 195.179 24.232C197.555 22.936 198.827 22.24 198.971 22.144C200.075 21.496 200.531 21.136 201.059 20.536C202.043 21.544 203.099 23.056 203.099 23.464C203.099 23.608 203.003 23.704 202.691 23.776C201.515 24.088 199.331 25.024 195.683 26.8C195.707 27.232 195.755 28.336 195.755 29.104C195.755 29.224 195.755 29.416 195.755 29.608C195.755 29.728 195.755 29.776 195.755 29.848V30.256C195.755 30.544 195.707 30.688 195.587 30.76C195.467 30.88 194.819 30.952 194.099 30.952C193.283 30.952 193.139 30.88 193.139 30.496C193.139 30.472 193.139 30.448 193.139 30.4C193.187 29.704 193.211 28.792 193.211 28.216ZM208.364 27.76C210.62 27.76 212.42 29.584 212.42 31.816C212.42 34.072 210.596 35.896 208.364 35.896C206.132 35.896 204.308 34.072 204.308 31.816C204.308 29.584 206.132 27.76 208.364 27.76ZM208.364 29.632C207.164 29.632 206.18 30.616 206.18 31.816C206.18 33.04 207.164 34.024 208.364 34.024C209.564 34.024 210.548 33.04 210.548 31.816C210.548 30.616 209.564 29.632 208.364 29.632Z" fill="#13132D"/>
<rect x="4.5" y="4.5" width="228" height="40" stroke="#B8CADE"/>
<circle cx="4" cy="4" r="3.5" fill="#FBFDFF" stroke="#B8CADE"/>
<circle cx="119" cy="4" r="3.5" fill="#FBFDFF" stroke="#B8CADE"/>
<circle cx="233" cy="4" r="3.5" fill="#FBFDFF" stroke="#B8CADE"/>
<circle cx="4" cy="45" r="3.5" fill="#FBFDFF" stroke="#B8CADE"/>
<circle cx="119" cy="45" r="3.5" fill="#FBFDFF" stroke="#B8CADE"/>
<circle cx="233" cy="45" r="3.5" fill="#FBFDFF" stroke="#B8CADE"/>
</svg>
