<svg width="346" height="49" viewBox="0 0 346 49" fill="none" xmlns="http://www.w3.org/2000/svg">
<path d="M22.904 34.864L22.4 32.104C22.64 32.128 22.784 32.128 23.024 32.128C23.528 32.128 23.864 32.128 24.632 32.08C26.408 28.528 28.424 22.336 28.568 20.008L31.496 20.704C31.352 21.184 31.28 21.424 31.136 21.952C29.768 26.56 28.856 29.032 27.44 31.864C30.152 31.624 30.152 31.624 31.832 31.432C32.648 31.336 33.704 31.168 34.952 30.952C34.112 29.44 33.104 27.88 32.024 26.392L34.184 25.192C36.44 28.336 38.168 31.288 39.392 34.12L37.088 35.584C36.632 34.384 36.488 34.024 36.032 33.064C33.032 33.64 32.504 33.736 30.176 34.024C29.696 34.072 27.56 34.312 23.72 34.744C23.312 34.792 23.144 34.816 22.904 34.864ZM28.448 16.864V15.712C28.448 15.136 28.424 14.824 28.328 14.392H31.16C31.064 14.8 31.04 15.112 31.04 15.736V16.864H36.776C38.048 16.864 38.696 16.84 39.44 16.72V19.408C38.768 19.312 38.12 19.288 36.776 19.288H23.096C23.096 27.904 22.4 31.744 20.192 35.488C19.112 34.144 19.088 34.12 18.176 33.328C19.976 30.352 20.504 27.304 20.504 20.104C20.504 18.28 20.48 17.608 20.408 16.768C21.128 16.84 21.8 16.864 22.808 16.864H28.448ZM60.1186 18.16C60.1186 18.304 59.9266 18.472 59.4466 18.832C59.0626 19.12 58.7986 19.24 58.6786 19.24C58.6066 19.24 58.5346 19.192 58.4626 19.072C57.9586 18.256 57.1186 17.32 56.4226 16.72C56.3746 16.672 56.3506 16.624 56.3506 16.576C56.3506 16.48 56.5186 16.312 56.9266 16C57.3346 15.712 57.4546 15.64 57.6226 15.64C58.0066 15.64 60.1186 17.776 60.1186 18.16ZM57.0466 21.664C56.9506 21.544 56.9026 21.472 56.9026 21.376C56.9026 21.208 57.1186 20.992 57.8146 20.44C58.2946 20.08 58.5346 19.936 58.7266 19.936C59.0386 19.936 60.1186 21.088 61.1266 22.504C61.9666 23.704 62.8786 25.408 62.8786 25.816C62.8786 26.056 62.8066 26.128 62.0386 26.752C61.5586 27.136 61.0066 27.448 60.8146 27.448C60.6466 27.448 60.5746 27.376 60.4066 26.968C59.9506 25.816 59.5426 25.024 58.8946 23.992C58.2466 22.96 58.1986 22.912 57.0466 21.664ZM58.7986 14.92C58.7986 14.728 59.7826 14.008 60.0466 14.008C60.4546 14.008 62.4946 16.048 62.4946 16.456C62.4946 16.576 62.3506 16.72 61.8706 17.056C61.4386 17.392 61.2226 17.512 61.1266 17.512C61.0066 17.512 61.0066 17.512 60.5266 16.84C60.1186 16.288 59.3506 15.472 58.9186 15.112C58.8466 15.04 58.7986 14.992 58.7986 14.92ZM47.3506 23.056C45.5746 23.464 44.5906 23.68 44.3746 23.752C44.1826 23.8 44.0866 23.848 43.9426 23.92C43.8226 23.992 43.7506 24.016 43.6546 24.016C43.1266 24.016 42.7426 23.104 42.4546 21.328C42.6466 21.328 42.8146 21.328 42.9106 21.328C43.9186 21.328 46.4866 21.016 48.0226 20.704C48.5266 18.616 48.7906 17.008 48.7906 15.88C48.7906 15.784 48.7906 15.64 48.7666 15.472C49.7986 15.568 50.7826 15.784 51.4546 16.072C51.8386 16.216 52.0306 16.408 52.0306 16.648C52.0306 16.768 52.0066 16.864 51.8866 17.056C51.5266 17.68 51.5266 17.68 50.7826 20.32C51.3586 20.248 52.0066 20.2 52.4146 20.2C53.3986 20.2 54.1666 20.392 54.7186 20.776C55.6786 21.472 56.1586 22.888 56.1586 25.072C56.1586 28.648 55.5106 31.72 54.4066 33.232C53.6386 34.288 52.6306 34.792 51.2146 34.792C50.3506 34.792 49.5346 34.672 49.2946 34.528C49.1026 34.408 49.1026 34.408 49.0306 33.52C48.9586 32.872 48.8146 32.296 48.5266 31.624C49.7746 32.056 50.0866 32.128 50.8546 32.128C52.0066 32.128 52.4866 31.576 53.0146 29.632C53.3746 28.36 53.5666 26.728 53.5666 24.952C53.5666 23.08 53.1106 22.408 51.8386 22.408C51.4066 22.408 50.7106 22.48 50.1586 22.552C50.0866 22.84 50.0626 22.864 49.9666 23.176C49.2946 25.648 48.0706 28.864 46.8466 31.456C45.5746 34.072 45.2626 34.6 44.9506 34.6C44.7586 34.6 44.1106 34.264 43.4146 33.808C42.8626 33.472 42.7186 33.328 42.7186 33.136C42.7186 33.016 42.7186 33.016 43.7026 31.456C45.0226 29.416 46.7506 25.432 47.3506 23.056ZM72.2364 23.968C73.7964 23.104 75.0204 22.744 76.4604 22.744C79.8444 22.744 82.2444 25.048 82.2444 28.312C82.2444 30.544 81.0684 32.56 79.1004 33.736C77.7324 34.552 76.0524 34.96 74.1564 34.96C71.1084 34.96 69.3324 33.736 69.3324 31.648C69.3324 29.752 70.9164 28.408 73.1724 28.408C75.2124 28.408 76.6764 29.44 77.6604 31.552C78.8844 30.664 79.3884 29.728 79.3884 28.432C79.3884 26.368 77.9244 25.024 75.6204 25.024C73.2684 25.024 70.7484 26.2 68.6604 28.288C68.2764 28.672 67.9164 29.08 67.4844 29.632C67.3164 29.872 67.1964 29.968 67.0524 29.968C66.6204 29.968 64.9164 28.288 64.9164 27.856C64.9164 27.64 65.0124 27.52 65.5404 27.136C66.0924 26.704 66.8844 26.008 67.8924 25.048C70.2204 22.84 71.9244 20.992 74.4444 17.92C71.4444 18.304 69.4284 18.64 68.6844 18.904C68.5644 18.928 68.4924 18.952 68.4204 18.952C68.2284 18.952 68.1084 18.832 67.9644 18.472C67.6764 17.752 67.5324 16.96 67.4604 15.904C68.1084 16 68.5644 16.024 69.0924 16.024C70.2444 16.024 72.1884 15.856 74.7084 15.568C75.5964 15.472 75.8844 15.4 76.5564 15.136C76.7724 15.04 76.8924 15.016 77.0364 15.016C77.3724 15.016 77.7084 15.304 78.3324 16.264C78.7884 16.888 78.9324 17.2 78.9324 17.392C78.9324 17.704 78.8604 17.8 78.3324 18.136C77.9004 18.4 77.6364 18.616 77.0844 19.144C75.8844 20.296 75.8604 20.296 74.3724 21.808C73.3164 22.888 73.1964 23.008 72.2364 23.968ZM75.1884 32.536C74.9004 31.744 74.6604 31.384 74.1564 31.048C73.7964 30.808 73.3884 30.688 72.9324 30.688C72.1884 30.688 71.7084 31.048 71.7084 31.624C71.7084 32.32 72.4524 32.752 73.6044 32.752C74.1324 32.752 74.5884 32.704 75.1884 32.536ZM103.944 14.608C105.384 14.608 106.512 15.736 106.512 17.176C106.512 18.616 105.384 19.744 103.944 19.744C102.504 19.744 101.376 18.616 101.376 17.176C101.376 15.736 102.504 14.608 103.944 14.608ZM103.944 15.904C103.248 15.904 102.672 16.48 102.672 17.176C102.672 17.872 103.248 18.448 103.944 18.448C104.616 18.448 105.216 17.872 105.216 17.176C105.216 16.48 104.64 15.904 103.944 15.904ZM90.4321 18.688C92.5201 18.904 93.9361 19.36 93.9361 19.816C93.9361 19.912 93.8881 20.032 93.7681 20.248C93.5041 20.68 93.4081 21.04 93.0961 22.408C92.3281 25.792 91.0801 28.72 89.4481 30.952C88.7521 31.912 88.2481 32.416 87.9601 32.416C87.8641 32.416 87.7681 32.368 87.6001 32.272C86.8081 31.84 86.1361 31.552 85.2001 31.336C87.4081 29.416 89.0881 26.344 89.9761 22.648C90.2641 21.376 90.4321 20.176 90.4321 19.096C90.4321 19.048 90.4321 18.88 90.4321 18.688ZM103.344 32.2C103.152 32.2 103.008 32.056 102.936 31.816C101.688 27.424 99.8881 23.344 97.9201 20.416C97.6321 20.008 97.6081 19.936 97.6081 19.816C97.6081 19.624 97.8241 19.456 98.5201 19.048C99.2401 18.592 99.6241 18.424 99.8401 18.424C100.104 18.424 100.176 18.52 101.088 19.936C102.168 21.616 103.224 23.752 104.472 26.848C105.312 28.912 105.816 30.472 105.816 30.904C105.816 31.192 105.696 31.288 105.096 31.576C104.52 31.864 103.56 32.2 103.344 32.2ZM108.673 23.248C110.617 23.44 112.321 23.488 117.337 23.488C121.729 23.488 124.249 23.44 126.673 23.272C126.745 23.272 126.889 23.272 126.985 23.272C127.705 23.272 127.705 23.296 127.705 25.216C127.705 26.2 127.633 26.368 127.225 26.368C127.225 26.368 127.153 26.368 127.129 26.368C125.545 26.296 124.657 26.296 117.721 26.296C115.177 26.296 113.905 26.32 111.697 26.392C111.529 26.392 111.337 26.392 111.001 26.392C110.233 26.392 110.113 26.416 109.657 26.488C109.537 26.488 109.441 26.512 109.393 26.512C109.129 26.512 108.961 26.392 108.913 26.176C108.769 25.576 108.673 24.352 108.673 23.248ZM137.407 24.616V27.328C137.407 28.792 137.479 32.704 137.527 33.832C137.527 33.88 137.527 33.928 137.527 33.952C137.527 34.168 137.479 34.336 137.359 34.408C137.191 34.552 136.231 34.672 135.343 34.672C134.575 34.672 134.431 34.6 134.431 34.12C134.431 34.096 134.431 34.072 134.431 34.024C134.479 33.4 134.551 26.488 134.551 23.632C134.551 18.112 134.503 16.552 134.287 15.16C136.015 15.28 136.783 15.352 137.479 15.496C137.719 15.568 137.839 15.688 137.839 15.88C137.839 16 137.839 16 137.743 16.408C137.647 16.696 137.599 17.032 137.575 17.416C137.575 17.464 137.527 18.904 137.455 21.736C139.159 22.216 139.159 22.216 140.143 22.576C142.543 23.416 143.911 24.04 146.047 25.168C146.239 25.312 146.335 25.432 146.335 25.576C146.335 25.816 145.903 26.968 145.519 27.688C145.327 28.096 145.207 28.216 145.063 28.216C144.967 28.216 144.847 28.168 144.679 28.048C142.327 26.488 139.855 25.336 137.407 24.616ZM168.053 21.88V22.144C168.053 23.248 168.029 23.392 167.717 23.392C167.693 23.392 167.645 23.392 167.597 23.392C166.757 23.344 166.493 23.344 160.349 23.344C159.941 27.184 159.077 29.536 157.229 31.96C156.341 33.112 155.477 33.904 154.493 34.504C154.301 34.624 154.133 34.696 153.989 34.696C153.821 34.696 153.677 34.648 153.485 34.48C152.549 33.76 152.093 33.496 151.253 33.232C155.333 30.736 156.941 28.12 157.373 23.368C152.909 23.392 150.461 23.464 149.813 23.56C149.741 23.584 149.669 23.584 149.621 23.584C149.429 23.584 149.309 23.488 149.261 23.272C149.045 22.624 148.973 21.88 148.925 20.608C150.149 20.776 151.541 20.824 157.517 20.824C157.517 20.368 157.517 20.224 157.517 19.744C157.517 17.608 157.469 16.816 157.205 15.472C158.765 15.52 159.677 15.592 160.349 15.712C160.709 15.784 160.853 15.904 160.853 16.144C160.853 16.288 160.853 16.312 160.685 16.744C160.589 16.984 160.517 17.752 160.517 18.736C160.517 19.312 160.517 19.36 160.493 20.8C163.781 20.776 166.373 20.656 167.477 20.536C167.549 20.512 167.621 20.512 167.669 20.512C167.981 20.512 168.053 20.728 168.053 21.568V21.88ZM171.268 23.248C173.212 23.44 174.916 23.488 179.932 23.488C184.324 23.488 186.844 23.44 189.268 23.272C189.34 23.272 189.484 23.272 189.58 23.272C190.3 23.272 190.3 23.296 190.3 25.216C190.3 26.2 190.228 26.368 189.82 26.368C189.82 26.368 189.748 26.368 189.724 26.368C188.14 26.296 187.252 26.296 180.316 26.296C177.772 26.296 176.5 26.32 174.292 26.392C174.124 26.392 173.932 26.392 173.596 26.392C172.828 26.392 172.708 26.416 172.252 26.488C172.132 26.488 172.036 26.512 171.988 26.512C171.724 26.512 171.556 26.392 171.508 26.176C171.364 25.576 171.268 24.352 171.268 23.248ZM201.016 29.392V20.488C200.296 20.488 200.224 20.512 199.48 20.512C198.208 20.512 197.488 20.536 196.336 20.608C195.856 20.656 195.664 20.656 195.568 20.656C194.968 20.656 194.848 20.2 194.8 17.656C196.216 17.848 198.016 17.896 202.36 17.896C206.272 17.896 208.264 17.824 209.584 17.68C209.68 17.656 209.8 17.656 209.872 17.656C210.232 17.656 210.304 17.92 210.304 19.576C210.304 20.416 210.232 20.56 209.872 20.56C209.704 20.56 209.704 20.56 208.72 20.512C208.432 20.488 206.872 20.488 203.896 20.488V29.368C208.768 29.368 210.328 29.32 211.504 29.224C211.792 29.176 211.984 29.176 212.056 29.176C212.104 29.176 212.104 29.176 212.152 29.176H212.224C212.344 29.176 212.464 29.224 212.512 29.32C212.584 29.488 212.632 30.16 212.632 31.072C212.632 31.96 212.56 32.128 212.176 32.128C212.152 32.128 212.152 32.128 211.792 32.104C210.88 32.008 207.976 31.96 203.944 31.96C198.592 31.96 195.088 32.056 193.744 32.248C193.504 32.296 193.408 32.296 193.312 32.296C193.072 32.296 192.928 32.2 192.832 31.984C192.664 31.528 192.52 30.376 192.472 29.224C193.936 29.344 195.352 29.368 201.016 29.392ZM228.946 28.864V20.728C227.962 20.728 227.386 20.728 226.738 20.728C222.346 20.728 217.882 20.872 217.282 21.016C217.162 21.04 217.09 21.064 217.066 21.064L216.946 21.04L216.85 21.064C216.586 20.992 216.586 20.968 216.538 20.776C216.418 20.2 216.37 19.552 216.274 17.8C217.69 17.968 219.418 18.04 222.706 18.04C228.994 18.04 229.498 18.04 231.874 17.92C231.802 20.248 231.802 21.592 231.802 25.552C231.802 26.944 231.874 31.168 231.922 32.008C231.946 32.368 231.946 32.392 231.946 32.512C231.946 32.824 231.874 33.016 231.706 33.088C231.562 33.136 230.482 33.232 229.858 33.232C228.898 33.232 228.898 33.232 228.898 32.656C228.898 32.56 228.898 32.56 228.922 31.6C228.298 31.6 227.914 31.6 227.746 31.6H226.546C223.906 31.6 219.106 31.696 218.17 31.744C217.594 31.792 217.258 31.816 216.802 31.888C216.73 31.912 216.658 31.912 216.586 31.912C216.322 31.912 216.226 31.816 216.154 31.312C216.058 30.856 215.986 29.968 215.914 28.696C217.522 28.84 219.106 28.888 222.898 28.888C225.442 28.888 225.442 28.888 228.946 28.864ZM253.603 20.008C253.747 21.136 253.843 21.448 254.347 22.768C254.443 23.008 254.467 23.152 254.467 23.296C254.467 23.608 254.347 23.8 253.891 24.304C251.899 26.512 249.859 28.312 247.411 29.968C245.323 31.384 242.923 32.656 240.595 33.64C239.899 33.928 239.683 34.048 239.419 34.288C239.203 34.456 239.131 34.504 239.011 34.504C238.555 34.504 237.739 33.184 237.019 31.288C239.347 30.88 242.083 29.752 244.867 28.072C246.595 27.04 248.659 25.48 250.147 24.088C251.467 22.864 252.211 21.952 253.603 20.008ZM242.875 23.728C242.875 23.968 242.539 24.616 241.987 25.504C241.651 26.032 241.555 26.128 241.363 26.128C241.195 26.128 241.195 26.128 240.163 25.432C239.323 24.88 238.267 24.376 236.539 23.776C236.155 23.632 236.035 23.536 236.035 23.368C236.035 23.248 236.227 22.84 236.611 22.192C236.707 22 236.803 21.856 236.851 21.736C237.115 21.256 237.235 21.112 237.427 21.112C237.835 21.112 239.635 21.784 240.931 22.408C241.651 22.768 242.563 23.296 242.755 23.44C242.827 23.536 242.875 23.608 242.875 23.728ZM245.419 18.856C245.419 19.12 244.867 20.08 244.291 20.8C243.979 21.184 243.859 21.28 243.691 21.28C243.595 21.28 243.475 21.232 243.331 21.088C241.843 19.792 240.427 18.88 238.891 18.28C238.651 18.184 238.555 18.088 238.555 17.944C238.555 17.848 238.579 17.776 238.699 17.584C239.851 15.832 239.899 15.76 240.163 15.76C240.643 15.76 242.635 16.72 244.003 17.632C245.155 18.4 245.419 18.616 245.419 18.856ZM267.379 25.792C269.251 27.04 270.523 28 272.011 29.392C273.547 30.784 274.483 31.792 274.483 32.056C274.483 32.272 274.171 32.656 273.427 33.376C272.875 33.904 272.635 34.072 272.467 34.072C272.371 34.072 272.251 34.024 272.107 33.904C271.843 33.592 271.843 33.592 270.739 32.344C269.419 30.856 267.619 29.272 265.531 27.784C263.947 29.44 261.811 31.24 260.083 32.416C258.715 33.352 257.419 34.072 257.131 34.072C256.891 34.072 256.867 34.048 256.291 33.4C255.955 33.016 255.403 32.536 254.803 32.104C257.563 30.832 259.603 29.464 261.883 27.376C264.355 25.12 265.987 23.032 267.907 19.72C259.795 19.768 259.795 19.768 258.475 19.912C258.187 19.936 258.139 19.936 258.091 19.936C257.827 19.936 257.683 19.816 257.635 19.552C257.515 18.784 257.467 18.064 257.467 16.792C259.099 17.008 261.643 17.104 265.123 17.104C266.539 17.104 268.027 17.056 268.819 16.96C269.131 16.936 269.179 16.912 269.683 16.744C269.779 16.696 269.827 16.696 269.971 16.696C270.379 16.696 270.811 17.032 271.387 17.8C271.843 18.448 272.107 18.952 272.107 19.216C272.107 19.504 272.035 19.6 271.411 20.176C271.027 20.56 270.859 20.752 270.115 21.976C269.395 23.176 268.291 24.688 267.379 25.792ZM284.653 24.208C280.765 24.232 279.445 24.256 277.597 24.304C277.333 24.328 277.165 24.328 277.069 24.328C276.973 24.328 276.901 24.328 276.853 24.352C276.757 24.352 276.685 24.352 276.637 24.352C276.397 24.352 276.229 24.232 276.181 23.944C276.061 23.368 275.989 22.576 275.989 21.472C277.045 21.592 277.261 21.592 279.685 21.64C282.829 21.688 284.725 21.712 285.373 21.712C289.381 21.712 294.061 21.64 294.805 21.568C294.901 21.568 294.973 21.568 295.021 21.568C295.357 21.568 295.357 21.592 295.357 23.176C295.357 24.232 295.309 24.352 294.973 24.352C294.949 24.352 294.877 24.352 294.805 24.352C293.701 24.304 293.245 24.304 287.605 24.232C287.509 26.056 287.413 26.824 287.101 27.928C286.357 30.64 284.941 32.536 282.541 34.024C281.869 34.456 281.341 34.696 281.125 34.696C281.005 34.696 280.909 34.648 280.717 34.456C279.853 33.592 279.565 33.352 278.701 32.92C282.949 30.928 284.509 28.648 284.653 24.208ZM278.869 15.976C279.901 16.096 283.021 16.192 285.973 16.192C288.277 16.192 290.797 16.12 291.805 16C291.829 16 291.877 16 291.925 16C292.261 16 292.333 16.168 292.333 16.912C292.333 16.96 292.333 17.176 292.333 17.416C292.333 17.56 292.333 17.8 292.309 18.088C292.309 18.736 292.261 18.808 291.805 18.808C291.733 18.808 291.661 18.808 291.517 18.808C290.869 18.784 286.477 18.712 285.397 18.712C282.517 18.712 280.429 18.76 279.661 18.856C279.589 18.88 279.517 18.88 279.469 18.88C279.229 18.88 279.109 18.784 279.061 18.568C278.965 18.064 278.869 16.912 278.869 15.976ZM301.771 30.28C302.683 30.184 303.595 30.112 304.051 30.064C306.907 29.824 309.283 29.56 310.699 29.32C309.763 27.664 308.899 26.344 308.035 25.336C307.939 25.216 307.891 25.12 307.891 25C307.891 24.784 308.155 24.592 309.091 24.04C309.523 23.8 309.691 23.752 309.931 23.752C310.123 23.752 310.243 23.8 310.387 23.944C311.635 25.216 313.099 27.376 314.299 29.728C314.947 31.024 315.499 32.392 315.499 32.704C315.499 32.92 315.259 33.136 314.707 33.424C313.987 33.784 313.291 34.048 313.051 34.048C312.835 34.048 312.691 33.904 312.571 33.568C312.403 32.992 312.115 32.296 311.803 31.576C309.787 31.936 308.299 32.176 307.315 32.32C303.979 32.8 303.091 32.92 298.915 33.328C298.099 33.424 297.691 33.496 297.163 33.712C297.067 33.736 296.995 33.76 296.899 33.76C296.707 33.76 296.563 33.664 296.443 33.424C296.059 32.704 295.819 31.84 295.651 30.64C296.251 30.664 296.251 30.664 296.299 30.664C296.803 30.664 296.803 30.664 298.603 30.544C298.771 30.16 298.771 30.16 299.107 29.416C300.379 26.656 302.035 21.688 302.899 18.136C303.187 17.032 303.283 16.432 303.331 15.64C304.483 15.832 305.443 16.072 306.235 16.336C306.739 16.504 306.955 16.648 306.955 16.864C306.955 16.984 306.907 17.056 306.643 17.368C306.523 17.536 306.259 18.064 306.115 18.472C306.019 18.688 305.779 19.456 304.843 22.408C304.123 24.568 302.731 28.168 301.771 30.28ZM321.861 27.76C324.117 27.76 325.917 29.584 325.917 31.816C325.917 34.072 324.093 35.896 321.861 35.896C319.629 35.896 317.805 34.072 317.805 31.816C317.805 29.584 319.629 27.76 321.861 27.76ZM321.861 29.632C320.661 29.632 319.677 30.616 319.677 31.816C319.677 33.04 320.661 34.024 321.861 34.024C323.061 34.024 324.045 33.04 324.045 31.816C324.045 30.616 323.061 29.632 321.861 29.632Z" fill="#13132D"/>
<rect x="4.5" y="4.5" width="338" height="40" stroke="#B8CADE"/>
<circle cx="4" cy="4" r="3.5" fill="#FBFDFF" stroke="#B8CADE"/>
<circle cx="173" cy="4" r="3.5" fill="#FBFDFF" stroke="#B8CADE"/>
<circle cx="342" cy="4" r="3.5" fill="#FBFDFF" stroke="#B8CADE"/>
<circle cx="4" cy="45" r="3.5" fill="#FBFDFF" stroke="#B8CADE"/>
<circle cx="173" cy="45" r="3.5" fill="#FBFDFF" stroke="#B8CADE"/>
<circle cx="342" cy="45" r="3.5" fill="#FBFDFF" stroke="#B8CADE"/>
</svg>
