<svg width="279" height="49" viewBox="0 0 279 49" fill="none" xmlns="http://www.w3.org/2000/svg">
<path d="M23.288 24.904H20.432V13.648H28.088V16.264H23.288V24.904ZM39.128 33.256V33.04C36.992 33.448 36.752 33.496 34.424 33.832C32.888 34.048 31.88 34.216 31.208 34.336L30.704 31.96C30.848 31.984 30.944 31.984 31.04 31.984C31.448 31.984 32.12 31.936 33.032 31.864V24.712C32.048 24.712 31.472 24.736 30.776 24.832V22.624C31.376 22.72 32 22.744 33.128 22.744H49.424C50.576 22.744 51.176 22.72 51.824 22.624V24.832C51.104 24.736 50.504 24.712 49.4 24.712H41.408V33.16C42.584 32.752 43.592 32.224 44.528 31.528C43.808 30.736 43.208 29.896 42.44 28.6L44.384 27.712H43.784C43.04 27.712 42.656 27.736 42.056 27.808V25.648C42.56 25.72 43.088 25.744 44 25.744H47.864C48.632 25.744 49.208 25.72 49.592 25.648L50.768 26.944C50.624 27.184 50.576 27.256 50.408 27.616C49.664 29.128 48.752 30.52 47.792 31.552C48.776 32.224 50.096 32.752 51.872 33.208C51.416 33.88 51.032 34.624 50.696 35.464C48.224 34.504 47.672 34.216 46.184 33.088C44.984 34.048 44.096 34.6 42.608 35.296C42.296 34.552 41.912 33.928 41.408 33.376C41.408 34.288 41.432 35.008 41.528 35.584H38.984C39.08 35.032 39.128 34.408 39.128 33.256ZM39.128 31.168V30.232H35.288V31.648C36.656 31.504 36.848 31.48 39.128 31.168ZM39.128 28.552V27.424H35.288V28.552H39.128ZM39.128 25.744V24.712H35.288V25.744H39.128ZM47.84 27.712H44.504C45.104 28.912 45.44 29.392 46.112 30.136C46.784 29.488 47.24 28.816 47.84 27.712ZM49.352 16.864V19.984C49.352 20.872 49.376 21.376 49.424 21.976C48.944 21.928 48.08 21.904 47.312 21.904H35.624C34.64 21.904 33.968 21.928 33.248 21.976C33.32 21.376 33.344 20.824 33.344 19.984V16.864C33.344 16 33.32 15.472 33.248 14.872C34.064 14.944 34.616 14.968 35.696 14.968H46.976C48.08 14.968 48.632 14.944 49.424 14.872C49.376 15.448 49.352 15.952 49.352 16.864ZM35.72 16.72V17.68H46.952V16.72H35.72ZM35.72 19.264V20.2H46.952V19.264H35.72ZM70.16 29.848H67.064V30.904H65C65.048 30.472 65.072 29.992 65.072 29.392V26.584C65.072 25.888 65.048 25.528 65 25.072C65.432 25.12 65.768 25.144 66.608 25.144H67.28V24.04H66.248C65.504 24.04 65.048 24.064 64.376 24.112V22.24C64.928 22.312 65.48 22.336 66.248 22.336H67.28V21.256H63.896V29.08C63.92 31.192 63.92 31.192 63.992 31.672H61.496C61.544 31.048 61.592 30.04 61.592 29.08V21.64C61.592 20.392 61.568 20.08 61.52 19.24C62.24 19.288 62.744 19.312 63.92 19.312H64.568C64.352 18.76 64.16 18.328 63.896 17.848H63.2C62.024 17.848 61.472 17.872 60.824 17.944V15.688C61.496 15.784 62.192 15.832 63.248 15.832H67.064C67.04 15.016 67.016 14.704 66.92 14.152H69.632C69.536 14.752 69.512 14.944 69.512 15.832H73.448C74.528 15.832 75.2 15.784 75.824 15.688V17.944C75.2 17.872 74.528 17.848 73.592 17.848H72.68C72.416 18.448 72.416 18.448 71.984 19.312H72.992C74.024 19.312 74.624 19.288 75.248 19.24C75.176 19.936 75.152 20.464 75.152 21.688V29.584C75.152 30.808 74.864 31.336 74.048 31.624C73.64 31.744 72.776 31.816 71.456 31.816C71.312 31.816 71 31.816 70.592 31.792C70.472 30.928 70.4 30.64 70.16 29.848ZM71.576 26.632V28.624C71.576 29.128 71.576 29.416 71.6 29.632C71.912 29.656 71.912 29.656 71.96 29.656C72.704 29.656 72.848 29.584 72.848 29.152V21.256H69.392V22.336H70.448C71.216 22.336 71.792 22.312 72.368 22.24V24.112C71.696 24.064 71.24 24.04 70.448 24.04H69.392V25.144H70.088C70.808 25.144 71.168 25.12 71.648 25.072C71.6 25.528 71.576 25.984 71.576 26.632ZM67.016 19.312H69.512C69.68 18.904 69.872 18.448 70.088 17.848H66.416C66.68 18.4 66.68 18.424 67.016 19.312ZM67.016 26.776V28.216H69.584V26.776H67.016ZM54.968 16.216L56.816 14.488C58.544 16.048 59.36 16.912 60.752 18.664L58.856 20.536C57.44 18.64 56.456 17.536 54.968 16.216ZM54.872 25.528V23.008C55.472 23.104 55.808 23.128 56.72 23.128H58.4C59.096 23.128 59.6 23.104 60.152 23.032C60.08 23.704 60.056 24.352 60.056 25.552V30.544C60.416 31.144 60.656 31.432 61.064 31.744C62.072 32.464 63.464 32.752 66.104 32.752C70.784 32.752 73.952 32.608 76.472 32.296C76.04 33.4 75.968 33.664 75.776 34.936C73.52 35.008 70.976 35.056 68.48 35.056C64.496 35.056 63.032 34.96 61.76 34.576C60.608 34.24 59.72 33.616 58.856 32.488C57.872 33.424 56.912 34.216 55.544 35.224L54.416 32.608C55.304 32.248 56.456 31.432 57.632 30.376V25.408H56.432C55.808 25.408 55.448 25.432 54.872 25.528ZM83.456 24.88H86.288V36.112H78.632V33.496H83.456V24.88ZM100.712 28.216V28.096C98.3362 29.488 97.6642 30.184 97.6642 31.24C97.6642 31.672 97.8322 31.96 98.1922 32.176C98.7202 32.488 99.8962 32.656 101.408 32.656C102.704 32.656 104.504 32.536 105.728 32.368C106.232 32.296 106.52 32.224 107.48 31.984C107.528 31.984 107.552 31.984 107.6 31.984C107.768 31.984 107.888 32.104 107.96 32.272C108.104 32.776 108.2 33.496 108.2 34.36C108.2 34.72 108.08 34.864 107.768 34.936C107.192 35.056 104.528 35.2 102.776 35.2C99.8482 35.2 98.2882 35.008 97.1362 34.528C95.7442 33.952 95.0482 32.872 95.0482 31.36C95.0482 29.968 95.6962 28.744 96.9922 27.712C98.0242 26.896 98.2642 26.728 100.472 25.48C100.28 24.688 99.9202 24.352 99.1762 24.352C98.1922 24.352 97.1602 24.736 96.0322 25.48C95.3362 25.96 94.5202 26.632 94.0162 27.136C93.2962 27.88 93.2242 27.928 93.0322 27.928C92.7922 27.928 92.2882 27.376 91.7842 26.536C91.5442 26.128 91.4002 25.816 91.4002 25.648C91.4002 25.432 91.4482 25.384 92.0242 25.024C93.9922 23.704 95.6242 22.024 96.6082 20.296C94.9042 20.416 94.0162 20.44 93.0802 20.44C92.7202 20.44 92.6482 20.368 92.5282 19.96C92.4562 19.648 92.3362 18.376 92.3122 17.728C93.1282 17.848 93.6082 17.872 94.7602 17.872C95.6962 17.872 96.7282 17.848 97.8082 17.8C98.3122 16.432 98.4802 15.568 98.5042 14.44C100.64 14.8 101.624 15.16 101.624 15.568C101.624 15.664 101.6 15.712 101.528 15.856C101.36 16.168 101.168 16.552 100.856 17.296C100.808 17.392 100.808 17.392 100.784 17.464C102.152 17.272 103.352 17.032 104.192 16.84C104.72 16.696 104.84 16.672 104.96 16.672C105.152 16.672 105.248 16.744 105.296 16.888C105.392 17.32 105.536 18.424 105.536 18.76C105.536 19.024 105.44 19.144 105.128 19.216C104.36 19.432 101.72 19.84 99.5122 20.056C98.7922 21.376 98.2882 22.144 97.5442 22.96C98.6242 22.456 99.4402 22.264 100.4 22.264C101.48 22.264 102.2 22.888 102.68 24.232C105.056 22.936 106.328 22.24 106.472 22.144C107.576 21.496 108.032 21.136 108.56 20.536C109.544 21.544 110.6 23.056 110.6 23.464C110.6 23.608 110.504 23.704 110.192 23.776C109.016 24.088 106.832 25.024 103.184 26.8C103.208 27.232 103.256 28.336 103.256 29.104C103.256 29.224 103.256 29.416 103.256 29.608C103.256 29.728 103.256 29.776 103.256 29.848V30.256C103.256 30.544 103.208 30.688 103.088 30.76C102.968 30.88 102.32 30.952 101.6 30.952C100.784 30.952 100.64 30.88 100.64 30.496C100.64 30.472 100.64 30.448 100.64 30.4C100.688 29.704 100.712 28.792 100.712 28.216ZM128.532 30.304V32.728C129.324 32.8 129.996 32.848 130.98 32.848C132.42 32.848 133.596 32.8 134.82 32.68C134.484 33.64 134.34 34.144 134.22 35.128C133.428 35.152 132.54 35.152 131.892 35.152C126.804 35.152 124.764 34.48 122.796 32.08C121.956 33.664 121.596 34.192 120.348 35.632C119.652 34.84 119.58 34.792 118.62 34.072C118.38 35.128 117.756 35.44 115.932 35.44C115.428 35.44 114.828 35.416 114.012 35.368C113.94 34.384 113.82 33.88 113.484 32.992C114.42 33.112 114.876 33.136 115.452 33.136C116.1 33.136 116.244 33.016 116.244 32.44V27.256C115.764 27.424 115.476 27.544 114.996 27.688C114.42 27.88 114.132 28 113.796 28.144L113.436 25.6C114.036 25.528 114.9 25.288 116.244 24.856V20.752H115.26C114.732 20.752 114.228 20.776 113.604 20.848V18.4C114.18 18.496 114.636 18.52 115.284 18.52H116.244V16.696C116.244 15.544 116.22 15.04 116.1 14.344H118.836C118.74 15.016 118.716 15.52 118.716 16.672V18.52H119.46C120.396 18.496 120.396 18.496 120.444 18.496C120.468 18.496 120.54 18.472 120.66 18.472C120.708 18.448 120.756 18.448 120.852 18.448V20.824C120.396 20.776 120.012 20.752 119.484 20.752H118.716V23.968C119.58 23.656 119.796 23.56 120.732 23.152V24.184C121.212 24.232 121.812 24.256 122.628 24.256H132.204C133.164 24.256 133.74 24.232 134.34 24.136V26.488C133.692 26.392 133.092 26.368 132.204 26.368H128.532V28.288H131.412C132.372 28.288 132.876 28.264 133.452 28.192V30.4C132.828 30.328 132.324 30.304 131.412 30.304H128.532ZM122.004 27.136L124.404 27.712C124.332 27.88 124.26 28.144 123.972 29.056C123.876 29.392 123.828 29.584 123.684 29.944C124.332 30.952 125.028 31.552 126.132 32.104V26.368H122.388C121.572 26.368 121.14 26.392 120.612 26.464V25.504C119.964 25.816 119.556 25.984 118.716 26.32V33.184C118.716 33.376 118.692 33.496 118.668 33.76C119.628 32.848 120.132 32.224 120.684 31.24C121.38 29.968 121.836 28.552 122.004 27.136ZM130.644 23.152H123.588C122.604 23.152 122.436 23.152 121.668 23.2C121.692 22.816 121.716 22.024 121.74 20.824V17.176C121.74 16.288 121.716 15.544 121.644 15.016C122.388 15.088 123.012 15.112 123.876 15.112H130.74C131.676 15.112 132.252 15.088 132.948 15.016C132.876 15.568 132.852 16.216 132.852 17.08V20.896C132.852 21.76 132.852 21.808 132.948 23.224C132.396 23.176 131.628 23.152 130.644 23.152ZM124.068 17.104V18.184H130.5V17.104H124.068ZM124.068 20.08V21.184H130.5V20.08H124.068ZM149.364 18.736H152.748V16.384C152.748 15.616 152.724 15.04 152.628 14.464H155.34C155.268 15.088 155.22 15.688 155.22 16.432V18.736H156.276C157.236 18.736 157.836 18.688 158.46 18.592V21.208C157.836 21.136 157.212 21.088 156.276 21.088H155.22V25.84H156.852C157.86 25.84 158.412 25.816 159.06 25.72V28.312C158.436 28.216 157.836 28.192 156.852 28.192H145.572C144.588 28.192 143.988 28.216 143.364 28.312V25.72C143.94 25.792 144.588 25.84 145.572 25.84H146.868V21.088H146.196C145.26 21.088 144.684 21.112 144.012 21.208V18.616C144.66 18.688 145.332 18.736 146.196 18.736H146.868V16.36C146.868 15.664 146.82 15.088 146.748 14.464H149.484C149.388 15.04 149.364 15.568 149.364 16.384V18.736ZM149.364 25.84H152.748V21.088H149.364V25.84ZM141.78 13.984L144.42 14.728C144.276 15.088 144.252 15.136 144.084 15.664C143.508 17.416 143.124 18.376 142.452 19.816V32.872C142.452 33.664 142.5 34.768 142.572 35.536H139.836C139.932 34.744 139.98 34.024 139.98 32.824V26.296C139.98 24.976 139.98 24.736 140.028 23.728C139.404 24.808 138.972 25.408 138.156 26.344C137.748 24.904 137.628 24.592 137.124 23.56C139.476 21.112 141.348 17.248 141.78 13.984ZM152.052 29.776L154.188 28.36C155.028 29.632 155.508 30.232 156.468 31.216C157.452 32.2 158.052 32.68 159.204 33.4C158.556 34.024 158.292 34.36 157.38 35.584C156.204 34.72 155.628 34.192 154.644 33.16C153.54 31.96 152.988 31.24 152.052 29.776ZM147.636 28.432L149.868 29.848C148.212 32.44 147.036 33.76 144.684 35.584C143.892 34.648 143.556 34.312 142.692 33.616C143.94 32.824 144.612 32.272 145.524 31.312C146.388 30.4 146.844 29.776 147.636 28.432ZM171.347 22.408V20.56C166.091 20.896 164.051 21.112 162.539 21.52C162.443 21.544 162.347 21.568 162.275 21.568C162.107 21.568 161.963 21.448 161.891 21.256C161.675 20.656 161.555 19.864 161.483 18.664C161.771 18.664 161.963 18.664 162.059 18.664C162.827 18.664 163.547 18.64 165.851 18.496C167.627 18.4 169.139 18.328 171.299 18.256C171.275 16.096 171.251 15.76 171.035 14.68C172.883 14.728 173.819 14.8 174.155 14.944C174.299 15.016 174.371 15.136 174.371 15.376C174.371 15.424 174.347 15.52 174.299 15.64C174.083 16.168 174.011 16.696 173.963 18.184C177.467 18.088 177.995 18.088 180.395 18.088C181.043 18.088 181.139 18.088 181.211 18.16C181.307 18.256 181.355 18.616 181.355 19.432C181.355 20.536 181.331 20.656 181.019 20.656C180.995 20.656 180.971 20.656 180.923 20.656C179.891 20.56 177.323 20.464 175.643 20.464C175.091 20.464 175.091 20.464 173.891 20.488L173.843 24.424C174.203 25.216 174.323 25.888 174.323 27.04C174.323 30.04 173.219 32.344 170.891 34.048C169.931 34.768 168.707 35.392 168.275 35.392C168.059 35.392 167.939 35.32 167.747 35.128C167.075 34.36 166.571 33.976 165.707 33.496C167.147 33.088 167.891 32.752 168.827 32.176C169.523 31.72 170.147 31.216 170.603 30.712C170.915 30.328 171.155 29.968 171.515 29.2C170.819 29.92 170.243 30.184 169.355 30.184C167.339 30.184 166.019 28.648 166.019 26.32C166.019 23.872 167.579 22.096 169.739 22.096C170.435 22.096 170.867 22.192 171.347 22.408ZM169.907 24.352C169.043 24.352 168.443 25.096 168.443 26.176C168.443 27.184 169.019 27.88 169.883 27.88C170.795 27.88 171.347 27.232 171.347 26.128C171.347 25 170.819 24.352 169.907 24.352ZM190.09 23.968C191.65 23.104 192.874 22.744 194.314 22.744C197.698 22.744 200.098 25.048 200.098 28.312C200.098 30.544 198.922 32.56 196.954 33.736C195.586 34.552 193.906 34.96 192.01 34.96C188.962 34.96 187.186 33.736 187.186 31.648C187.186 29.752 188.77 28.408 191.026 28.408C193.066 28.408 194.53 29.44 195.514 31.552C196.738 30.664 197.242 29.728 197.242 28.432C197.242 26.368 195.778 25.024 193.474 25.024C191.122 25.024 188.602 26.2 186.514 28.288C186.13 28.672 185.77 29.08 185.338 29.632C185.17 29.872 185.05 29.968 184.906 29.968C184.474 29.968 182.77 28.288 182.77 27.856C182.77 27.64 182.866 27.52 183.394 27.136C183.946 26.704 184.738 26.008 185.746 25.048C188.074 22.84 189.778 20.992 192.298 17.92C189.298 18.304 187.282 18.64 186.538 18.904C186.418 18.928 186.346 18.952 186.274 18.952C186.082 18.952 185.962 18.832 185.818 18.472C185.53 17.752 185.386 16.96 185.314 15.904C185.962 16 186.418 16.024 186.946 16.024C188.098 16.024 190.042 15.856 192.562 15.568C193.45 15.472 193.738 15.4 194.41 15.136C194.626 15.04 194.746 15.016 194.89 15.016C195.226 15.016 195.562 15.304 196.186 16.264C196.642 16.888 196.786 17.2 196.786 17.392C196.786 17.704 196.714 17.8 196.186 18.136C195.754 18.4 195.49 18.616 194.938 19.144C193.738 20.296 193.714 20.296 192.226 21.808C191.17 22.888 191.05 23.008 190.09 23.968ZM193.042 32.536C192.754 31.744 192.514 31.384 192.01 31.048C191.65 30.808 191.242 30.688 190.786 30.688C190.042 30.688 189.562 31.048 189.562 31.624C189.562 32.32 190.306 32.752 191.458 32.752C191.986 32.752 192.442 32.704 193.042 32.536ZM208.68 23.608V21.832C207.144 22.792 206.616 23.08 204.984 23.824C204.576 22.888 204.216 22.264 203.64 21.448C206.088 20.488 207.696 19.6 209.424 18.256C210.96 17.08 212.112 15.832 213.072 14.368H215.784C217.008 16.072 217.944 16.984 219.696 18.208C221.64 19.6 223.536 20.584 225.624 21.328C224.976 22.312 224.664 22.96 224.328 23.92C222.888 23.296 222 22.816 220.416 21.808V23.608C219.792 23.536 219.216 23.512 218.352 23.512H210.648C210 23.512 209.304 23.536 208.68 23.608ZM210.672 21.112H218.328C218.64 21.112 218.856 21.112 219.336 21.088C217.248 19.696 215.904 18.448 214.512 16.6C213.312 18.232 211.92 19.552 209.736 21.088C210.12 21.112 210.312 21.112 210.672 21.112ZM210.888 27.76H207.408C206.208 27.76 205.44 27.808 204.696 27.904V25.24C205.416 25.312 206.328 25.36 207.408 25.36H221.736C222.888 25.36 223.68 25.312 224.448 25.24V27.904C223.68 27.808 222.912 27.76 221.736 27.76H213.84C213.072 29.512 212.352 30.856 211.44 32.224C215.424 32.008 215.424 32.008 218.736 31.648C217.992 30.832 217.584 30.4 216.312 29.104L218.592 28.096C221.064 30.592 222.072 31.768 223.92 34.216L221.688 35.68C221.04 34.696 220.848 34.408 220.32 33.688C218.4 33.928 217.032 34.096 216.168 34.168C213.768 34.408 209.4 34.816 208.416 34.888C207.12 34.96 205.968 35.08 205.44 35.2L205.08 32.392C205.776 32.44 206.064 32.464 206.376 32.464C206.568 32.464 207.264 32.44 208.44 32.368C209.568 30.64 210.288 29.272 210.888 27.76ZM234.096 26.536V33.208C234.096 34.288 234.12 34.888 234.24 35.56H231.456C231.552 34.864 231.6 34.24 231.6 33.16V27.376C230.664 28.216 230.184 28.576 229.032 29.344C228.744 28.456 228.336 27.616 227.856 26.944C229.464 26.008 230.568 25.144 231.816 23.824C232.896 22.696 233.568 21.736 234.312 20.272H230.568C229.752 20.272 229.2 20.296 228.648 20.368V17.8C229.248 17.872 229.704 17.896 230.448 17.896H231.624V15.976C231.624 15.352 231.576 14.752 231.48 14.224H234.24C234.144 14.728 234.12 15.28 234.12 16V17.896H235.08C235.776 17.896 236.04 17.872 236.4 17.824L237.504 19.024C237.312 19.336 237.168 19.624 237 20.008C236.232 21.688 235.824 22.384 234.696 23.944C235.776 25.168 236.832 26.008 238.344 26.848C237.816 27.592 237.48 28.216 237.096 29.128C235.872 28.36 235.152 27.712 234.096 26.536ZM243.888 23.104V32.104H246.648C247.8 32.104 248.592 32.056 249.288 31.984V34.744C248.472 34.648 247.584 34.6 246.648 34.6H238.776C237.816 34.6 236.976 34.648 236.184 34.744V31.984C236.904 32.056 237.72 32.104 238.8 32.104H241.32V23.104H239.592C238.824 23.104 238.056 23.152 237.336 23.224V20.608C237.984 20.704 238.632 20.728 239.592 20.728H241.32V16.672C241.32 15.712 241.272 15.16 241.176 14.272H244.032C243.912 15.184 243.888 15.64 243.888 16.672V20.728H246.312C247.368 20.728 247.968 20.704 248.592 20.608V23.224C247.848 23.152 247.128 23.104 246.312 23.104H243.888ZM256.008 27.76C258.264 27.76 260.064 29.584 260.064 31.816C260.064 34.072 258.24 35.896 256.008 35.896C253.776 35.896 251.952 34.072 251.952 31.816C251.952 29.584 253.776 27.76 256.008 27.76ZM256.008 29.632C254.808 29.632 253.824 30.616 253.824 31.816C253.824 33.04 254.808 34.024 256.008 34.024C257.208 34.024 258.192 33.04 258.192 31.816C258.192 30.616 257.208 29.632 256.008 29.632Z" fill="#13132D"/>
<rect x="4.5" y="4.5" width="270" height="40" stroke="#B8CADE"/>
<circle cx="4" cy="4" r="3.5" fill="#FBFDFF" stroke="#B8CADE"/>
<circle cx="140" cy="4" r="3.5" fill="#FBFDFF" stroke="#B8CADE"/>
<circle cx="275" cy="4" r="3.5" fill="#FBFDFF" stroke="#B8CADE"/>
<circle cx="4" cy="45" r="3.5" fill="#FBFDFF" stroke="#B8CADE"/>
<circle cx="140" cy="45" r="3.5" fill="#FBFDFF" stroke="#B8CADE"/>
<circle cx="275" cy="45" r="3.5" fill="#FBFDFF" stroke="#B8CADE"/>
</svg>
