<svg width="191" height="49" viewBox="0 0 191 49" fill="none" xmlns="http://www.w3.org/2000/svg">
<path d="M30.632 22.512H24.848C23.768 22.512 23.264 22.536 22.496 22.608V20.424C23.144 20.496 23.72 20.52 24.848 20.52H27.656C27.272 19.656 27.056 19.248 26.792 18.792H24.32C23.216 18.792 22.304 18.84 21.584 18.912V16.608C22.304 16.704 23.024 16.752 24.2 16.752H24.944C24.512 15.96 24.224 15.576 23.384 14.616L25.688 13.752C26.456 14.808 26.768 15.336 27.464 16.752H28.76V15.144C28.76 14.448 28.712 13.8 28.64 13.344H31.136C31.088 13.776 31.064 14.28 31.064 15.048V16.752H32.768V15.048C32.768 14.328 32.744 13.824 32.672 13.344H35.192C35.12 13.776 35.072 14.424 35.072 15.144V16.752H36.512C37.304 15.648 37.76 14.808 38.168 13.704L40.52 14.568C40.016 15.432 39.584 16.104 39.104 16.752H39.752C40.952 16.752 41.672 16.704 42.368 16.608V18.912C41.648 18.84 40.736 18.792 39.632 18.792H37.304C36.92 19.656 36.752 20.016 36.464 20.52H39.128C40.256 20.52 40.832 20.496 41.504 20.424V22.608C40.76 22.536 40.232 22.512 39.128 22.512H33.104V23.616H37.952C38.96 23.616 39.68 23.592 40.304 23.52V25.536C39.704 25.464 38.96 25.44 37.952 25.44H33.104V26.592H39.56C40.856 26.592 41.672 26.544 42.32 26.448V28.752C41.48 28.656 40.64 28.608 39.584 28.608H34.952C35.72 29.28 36.776 29.88 38.072 30.456C39.536 31.056 40.784 31.416 42.872 31.776C42.224 32.64 41.936 33.144 41.552 34.128C37.688 33.072 35.072 31.68 33.032 29.544C33.08 30.36 33.08 30.648 33.08 31.176V32.328C33.08 33.312 33.128 34.008 33.224 34.656H30.512C30.608 33.984 30.656 33.24 30.656 32.304V31.2C30.656 30.672 30.656 30.48 30.704 29.616C29.648 30.744 28.808 31.392 27.392 32.16C25.928 32.976 24.488 33.576 22.688 34.104C22.352 33.312 21.896 32.616 21.296 31.872C24.632 31.176 26.96 30.168 28.832 28.608H24.56C23.432 28.608 22.616 28.656 21.752 28.752V26.448C22.472 26.544 23.264 26.592 24.536 26.592H30.632V25.44H26.072C25.064 25.44 24.32 25.464 23.72 25.536V23.52C24.344 23.592 25.04 23.616 26.072 23.616H30.632V22.512ZM30.104 20.52H33.896C34.232 19.896 34.448 19.416 34.664 18.792H29.408C29.72 19.464 29.888 19.896 30.104 20.52ZM58.088 27.936H56.312C55.424 27.936 55.016 27.96 54.488 28.032V25.824C54.224 26.424 54.152 26.592 53.864 27.168C53.216 26.52 52.928 26.328 52.184 25.92C52.76 24.96 53.192 24 53.48 22.968H52.04L52.088 32.304C52.088 32.904 51.992 33.312 51.8 33.624C51.464 34.128 50.816 34.344 49.496 34.344C49.016 34.344 48.2 34.296 47.552 34.248C47.504 33.384 47.408 32.856 47.072 31.992C47.984 32.16 48.68 32.256 49.112 32.256C49.736 32.256 49.856 32.16 49.856 31.68L49.832 26.184C48.944 28.2 47.888 29.712 46.424 31.056C46.088 29.976 45.824 29.376 45.296 28.536C47.144 26.952 48.224 25.44 49.184 22.968H47.6C46.712 22.968 46.16 22.992 45.656 23.088V20.664C46.232 20.736 46.784 20.76 47.744 20.76H50.048C48.872 19.632 48.056 18.936 46.976 18.144L48.416 16.776C49.784 17.808 49.856 17.88 50.384 18.312C51.128 17.736 51.656 17.16 52.256 16.296H48.224C47.432 16.296 46.856 16.32 46.256 16.392V14.016C46.832 14.088 47.408 14.112 48.416 14.112H52.376C53.528 14.112 53.84 14.088 54.32 14.04L55.568 15.384C55.472 15.504 55.304 15.696 55.064 16.032C54.032 17.448 52.736 18.936 51.848 19.656C52.064 19.872 52.136 19.968 52.352 20.208L51.848 20.76H53.216C54.032 20.76 54.488 20.736 54.896 20.688L55.904 21.912C55.808 22.08 55.736 22.224 55.616 22.632C57.056 22.272 58.28 21.816 59.384 21.192C58.592 20.424 57.992 19.656 57.512 18.816C56.888 19.608 56.624 19.92 55.736 20.856C55.208 20.208 54.728 19.776 53.984 19.296C55.688 17.808 56.624 16.584 57.416 14.832C57.752 14.136 57.848 13.824 57.992 13.08L60.392 13.56C60.32 13.68 60.2 13.968 60.032 14.376C59.912 14.664 59.888 14.76 59.648 15.264H64.448C65.48 15.264 66.296 15.216 66.872 15.144V17.472C66.368 17.424 65.96 17.4 65.216 17.4C64.496 19.08 63.992 19.896 62.936 21.024C64.232 21.624 65.408 21.96 67.352 22.296C66.8 23.208 66.632 23.592 66.296 24.696C63.8 24 62.432 23.424 61.112 22.56C60.488 22.992 59.936 23.28 58.952 23.712L61.328 23.76C61.304 23.928 61.304 23.928 61.28 24.072C61.28 24.168 61.256 24.312 61.232 24.48C61.208 24.6 61.208 24.624 61.184 24.84C61.136 25.152 61.112 25.344 61.04 25.752H64.352C65.312 25.752 65.744 25.728 66.152 25.68C66.104 26.232 66.104 26.232 66.056 26.664C65.888 29.352 65.576 31.512 65.264 32.448C64.808 33.864 64.208 34.224 62.408 34.224C61.76 34.224 61.016 34.176 59.96 34.056C59.888 33.144 59.768 32.616 59.408 31.68C60.488 31.896 61.376 31.992 62.072 31.992C62.816 31.992 63.056 31.704 63.296 30.552C63.464 29.808 63.536 29.088 63.584 27.936H60.584C59.6 31.08 57.752 32.976 54.128 34.584C53.72 33.792 53.312 33.192 52.688 32.52C55.64 31.44 57.176 30.12 58.088 27.936ZM56.456 25.752H58.664C58.736 25.128 58.784 24.552 58.784 24C58.784 23.904 58.784 23.904 58.76 23.808C57.872 24.192 57.368 24.384 56.12 24.768C55.856 24.192 55.76 23.976 55.376 23.4C55.04 24.384 54.944 24.696 54.56 25.68C54.968 25.728 55.424 25.752 56.456 25.752ZM62.744 17.4H59.12C59.576 18.288 60.2 19.08 61.112 19.872C61.928 19.056 62.312 18.48 62.744 17.4ZM81.5518 18.36C80.8798 23.424 80.0878 26.184 78.6237 28.704C77.4717 30.696 75.8878 31.8 74.2557 31.8C71.7597 31.8 69.9837 29.352 69.9837 25.944C69.9837 22.152 71.9037 18.888 75.1917 17.16C76.7997 16.296 78.5277 15.912 80.8077 15.912C85.8238 15.912 89.5438 19.464 89.5438 24.216C89.5438 28.416 87.4798 31.44 83.4958 33.144C82.7037 33.48 82.0798 33.672 81.7678 33.672C81.4797 33.672 81.3597 33.576 81.0477 33.12C80.6398 32.496 80.1838 32.04 79.5358 31.608C84.4797 30.336 86.7118 28.008 86.7118 24.12C86.7118 22.128 85.8718 20.448 84.3838 19.392C83.5438 18.816 82.8718 18.576 81.5518 18.36ZM78.8158 18.48C77.1118 18.84 76.2718 19.248 75.1678 20.208C73.5597 21.624 72.6477 23.64 72.6477 25.896C72.6477 27.744 73.2477 28.824 74.2557 28.824C75.4557 28.824 76.6797 27.168 77.5917 24.312C78.1678 22.512 78.4557 21.144 78.8158 18.48ZM98.7281 16.536L97.1441 18.336C95.8241 16.872 95.0561 16.224 93.4001 15.144L95.0561 13.368C96.5441 14.376 97.3121 15.024 98.7281 16.416V15.216C99.4241 15.312 100.072 15.336 101.224 15.336H104.416V15.072C104.416 14.304 104.392 13.824 104.296 13.296H107.032C106.936 13.8 106.912 14.304 106.912 15.096V15.336H111.064C112.216 15.336 112.96 15.288 113.608 15.216V17.664C113.008 17.592 112.216 17.544 111.088 17.544H105.736C105.16 18.696 104.68 19.512 103.936 20.496C106.528 20.376 106.6 20.376 108.856 20.136C108.472 19.728 108.232 19.488 107.56 18.864L109.48 17.736C111.136 19.248 112.336 20.616 113.728 22.464L111.616 23.88C111.064 22.968 110.848 22.656 110.44 22.08C107.608 22.416 105.16 22.608 102.208 22.752C99.8321 22.872 99.5201 22.872 98.7281 22.968L98.4161 20.496C98.7281 20.544 99.6881 20.568 100.864 20.568H101.176C102.016 19.44 102.472 18.672 102.976 17.544H101.2C100.192 17.544 99.3761 17.592 98.7281 17.664V16.536ZM92.5361 20.88L94.0241 19.008C95.6801 19.92 96.3761 20.4 98.1521 21.912L96.6881 24.024C95.1521 22.512 94.5761 22.08 92.5361 20.88ZM95.9921 25.368L98.1041 26.88C97.2641 29.592 96.7361 30.912 95.8001 32.736C95.6081 33.072 95.5601 33.168 95.2721 33.672C95.1281 33.936 95.1281 33.936 94.9601 34.248L92.7521 32.328C93.2081 31.872 93.4721 31.512 93.8081 30.888C94.8401 29.016 95.2961 27.84 95.9921 25.368ZM106.552 33.624H103.936C104.032 32.952 104.08 32.256 104.08 31.392V25.776C104.08 25.008 104.056 24.36 103.984 23.832H106.528C106.456 24.408 106.432 24.912 106.432 25.752V31.416C106.432 32.304 106.48 33.048 106.552 33.624ZM99.9761 23.736H102.496C102.448 24.144 102.448 24.264 102.4 25.128C102.256 28.704 102.088 29.688 101.344 31.128C100.648 32.424 100 33.168 98.3681 34.44C97.7441 33.528 97.4321 33.192 96.5441 32.568C99.2321 30.84 100.072 29.088 100.072 25.224C100.072 24.648 100.048 24.312 99.9761 23.736ZM110.584 25.752V31.344C110.584 31.824 110.68 31.92 111.208 31.92C111.736 31.92 111.952 31.848 112.024 31.608C112.12 31.272 112.216 29.928 112.216 28.344C113.008 28.776 113.512 28.992 114.328 29.184C114.16 32.232 114.064 32.832 113.608 33.408C113.224 33.912 112.504 34.104 110.992 34.104C109.624 34.104 108.952 33.936 108.568 33.528C108.28 33.24 108.208 32.976 108.208 32.184V25.824C108.208 24.672 108.184 24.168 108.112 23.616H110.68C110.608 24.168 110.584 24.6 110.584 25.752ZM121.392 22.608L121.44 20.568C120.36 20.784 119.328 21.048 118.656 21.288C118.488 21.36 118.344 21.384 118.224 21.384C118.008 21.384 117.888 21.264 117.744 20.856C117.576 20.328 117.408 19.488 117.312 18.648C117.672 18.672 117.84 18.696 118.056 18.696C118.968 18.696 119.952 18.576 121.464 18.288L121.512 16.848C121.536 16.512 121.536 16.272 121.536 16.2C121.536 15.168 121.512 14.544 121.416 13.896C122.688 13.944 123.48 14.04 124.248 14.232C124.56 14.304 124.704 14.448 124.704 14.664C124.704 14.76 124.68 14.832 124.56 15.096C124.344 15.552 124.32 15.84 124.152 17.832C124.68 18.192 125.136 18.696 125.136 18.936C125.136 19.08 125.064 19.2 124.848 19.464C124.488 19.848 124.368 20.016 123.912 20.688C123.864 21.312 123.864 21.312 123.864 21.48C124.656 20.784 125.184 20.328 126 19.728C126.912 19.032 127.92 18.384 128.641 18.024C129.576 17.52 130.224 17.352 131.089 17.352C132.36 17.352 133.273 17.832 133.776 18.744C134.065 19.32 134.185 19.872 134.185 20.808C134.185 21.624 134.136 22.392 133.992 24.144C133.8 26.208 133.704 27.744 133.704 28.68C133.704 29.616 133.92 29.904 134.593 29.904C135.552 29.904 136.729 29.208 137.76 28.032C137.784 28.968 137.857 29.256 138.169 30.216C138.24 30.408 138.265 30.528 138.265 30.624C138.265 30.888 138.145 31.104 137.737 31.416C136.753 32.208 135.336 32.712 134.065 32.712C131.953 32.712 130.992 31.608 130.992 29.184C130.992 28.08 131.065 26.664 131.305 23.304C131.376 22.512 131.401 21.84 131.401 21.504C131.401 20.52 131.065 20.064 130.344 20.064C129.6 20.064 128.208 20.832 126.312 22.296C125.352 23.016 124.8 23.52 123.792 24.552C123.792 24.696 123.792 24.696 123.792 24.864C123.792 25.2 123.792 25.536 123.792 25.656C123.792 27.456 123.912 31.608 124.008 33.072C124.008 33.192 124.008 33.288 124.008 33.36C124.008 33.552 123.984 33.624 123.936 33.696C123.816 33.84 123.12 33.936 122.016 33.936C121.32 33.936 121.176 33.84 121.176 33.432C121.176 33.288 121.176 33.048 121.2 32.784C121.2 32.664 121.2 32.472 121.2 32.232C121.224 31.392 121.224 31.392 121.32 26.832C119.952 28.608 119.952 28.608 119.136 29.928C118.92 30.264 118.776 30.384 118.584 30.384C118.392 30.384 117.96 30 117.216 29.184C116.76 28.656 116.592 28.44 116.592 28.296C116.592 28.176 116.64 28.08 116.808 27.912C118.32 26.352 119.592 24.864 121.392 22.608ZM144.698 26.16C144.914 26.664 145.058 26.904 145.49 27.552C145.562 27.672 145.586 27.768 145.586 27.888C145.586 28.056 145.562 28.08 145.346 28.608C144.866 29.712 144.29 31.44 144.002 32.736C143.93 33 143.858 33.144 143.762 33.192C143.642 33.24 142.826 33.36 142.562 33.36C142.538 33.36 142.514 33.36 142.466 33.36C142.346 33.36 142.178 33.336 141.986 33.336C141.674 33.336 141.602 33.264 141.506 32.976C141.05 31.416 140.69 28.2 140.69 25.776C140.69 23.136 140.858 21.504 141.53 17.904C141.77 16.608 141.89 15.888 141.986 15.096C142.994 15.288 143.858 15.528 144.578 15.864C144.986 16.032 145.106 16.152 145.106 16.392C145.106 16.56 145.082 16.632 144.818 17.016C144.026 18.288 143.138 23.376 143.138 26.808C143.138 27.36 143.162 28.104 143.234 29.304C143.906 27.792 144.146 27.336 144.698 26.16ZM148.898 16.992C148.922 16.992 148.97 16.992 149.018 17.016C149.546 17.136 151.082 17.232 152.258 17.232C153.842 17.232 155.426 17.112 156.914 16.848C157.034 16.824 157.034 16.824 157.13 16.824C157.298 16.824 157.37 16.896 157.418 17.088C157.466 17.328 157.538 18.384 157.538 19.032C157.538 19.392 157.466 19.512 157.202 19.56C156.218 19.752 154.586 19.872 152.858 19.872C150.794 19.872 148.946 19.752 148.706 19.608C148.586 19.536 148.538 19.368 148.538 18.936C148.538 18.288 148.61 17.328 148.658 17.136C148.682 17.04 148.754 16.992 148.898 16.992ZM149.09 27.552C149.522 28.416 149.93 28.848 150.698 29.256C151.466 29.664 152.378 29.808 153.986 29.808C155.522 29.808 156.434 29.688 157.922 29.256C158.066 29.208 158.186 29.184 158.258 29.184C158.426 29.184 158.546 29.28 158.57 29.52C158.69 30.336 158.786 31.296 158.786 31.776C158.786 32.016 158.714 32.088 158.378 32.184C157.082 32.52 155.762 32.688 154.154 32.688C151.946 32.688 150.578 32.424 149.45 31.752C148.394 31.104 147.29 29.784 147.29 29.136C147.29 28.8 147.794 28.344 149.09 27.552Z" fill="#13132D"/>
<rect x="4.5" y="4.5" width="182" height="40" stroke="#B8CADE"/>
<circle cx="4" cy="4" r="3.5" fill="#FBFDFF" stroke="#B8CADE"/>
<circle cx="96" cy="4" r="3.5" fill="#FBFDFF" stroke="#B8CADE"/>
<circle cx="187" cy="4" r="3.5" fill="#FBFDFF" stroke="#B8CADE"/>
<circle cx="4" cy="45" r="3.5" fill="#FBFDFF" stroke="#B8CADE"/>
<circle cx="96" cy="45" r="3.5" fill="#FBFDFF" stroke="#B8CADE"/>
<circle cx="187" cy="45" r="3.5" fill="#FBFDFF" stroke="#B8CADE"/>
</svg>
