<svg width="218" height="49" viewBox="0 0 218 49" fill="none" xmlns="http://www.w3.org/2000/svg">
<path d="M34.1586 30.448L33.9186 24.496C32.4786 26.392 30.7506 28.048 28.6386 29.536C27.2706 30.496 25.3026 31.624 24.9666 31.624C24.7506 31.624 24.7026 31.576 24.1746 30.928C23.6706 30.28 23.3106 29.92 22.7346 29.512C24.9906 28.624 26.4066 27.808 28.2306 26.368C30.0546 24.928 31.0866 23.896 32.6226 21.904C29.0946 21.904 26.5746 21.976 25.5426 22.12C25.3266 22.168 25.2066 22.168 25.1106 22.168C24.7746 22.168 24.6786 22.12 24.5826 21.904C24.4626 21.52 24.3666 20.536 24.3426 19.216C25.4466 19.36 29.0706 19.48 32.0946 19.48H33.7026L33.6546 18.352C33.5826 16.696 33.5346 16.096 33.3186 15.088C34.7346 15.136 35.7666 15.232 36.4146 15.4C36.6306 15.448 36.7266 15.568 36.7266 15.736C36.7266 15.904 36.7026 15.952 36.5586 16.192C36.4146 16.432 36.3666 16.696 36.3666 17.248C36.3666 17.608 36.3666 18.04 36.3906 18.472L36.4386 19.456C40.6626 19.384 41.1666 19.384 41.6706 19.36C41.9106 19.336 41.9106 19.336 42.0786 19.336C42.6306 19.336 42.6786 19.456 42.6786 20.704C42.6786 21.952 42.6546 22.024 42.1986 22.024C42.1506 22.024 42.1266 22.024 42.0546 22.024C41.9826 22.024 41.8386 22.024 41.6466 22C41.5266 22 41.5266 22 40.7586 22C39.3426 21.976 37.3986 21.928 36.5586 21.928L36.8226 27.832C36.8226 28.048 36.8466 28.168 36.9426 29.416C37.0146 30.352 37.0146 30.472 37.0146 30.88C37.0146 33.52 36.1026 34.288 32.9346 34.288C31.9986 34.288 31.4946 34.24 31.3266 34.168C31.0866 34.048 31.0386 33.976 30.8466 33.232C30.6786 32.68 30.4146 32.032 30.0066 31.24C31.1586 31.456 31.9506 31.552 32.7906 31.552C33.9666 31.552 34.1826 31.384 34.1826 30.52C34.1826 30.52 34.1826 30.472 34.1586 30.448ZM64.5286 13.048C65.9686 13.048 67.0966 14.176 67.0966 15.616C67.0966 17.056 65.9686 18.184 64.5286 18.184C63.0886 18.184 61.9606 17.056 61.9606 15.616C61.9606 14.176 63.0886 13.048 64.5286 13.048ZM64.5286 14.344C63.8326 14.344 63.2566 14.92 63.2566 15.616C63.2566 16.312 63.8326 16.888 64.5286 16.888C65.2006 16.888 65.8006 16.312 65.8006 15.616C65.8006 14.92 65.2246 14.344 64.5286 14.344ZM58.7686 19.96C56.8966 19.984 56.8966 19.984 54.1846 19.984C49.8886 20.008 46.8646 20.152 46.0966 20.368C46.0726 20.392 46.0486 20.392 46.0246 20.392C45.5686 20.392 45.4246 19.6 45.3526 17.128C46.5286 17.296 48.0646 17.368 51.6166 17.368C54.8326 17.368 58.6006 17.296 59.2006 17.224C59.6326 17.176 59.7766 17.152 60.2086 16.984C60.3286 16.936 60.3766 16.936 60.4726 16.936C60.8806 16.936 61.3846 17.32 62.1526 18.232C62.6086 18.808 62.7046 18.952 62.7046 19.216C62.7046 19.384 62.6326 19.528 62.4646 19.744C62.2246 20.032 62.2006 20.104 61.6726 21.784C60.3286 26.008 57.6646 29.8 54.0646 32.584C52.6246 33.688 51.2566 34.528 50.8966 34.528C50.6326 34.528 50.5846 34.504 50.0326 33.952C49.3846 33.304 48.8806 32.92 48.2326 32.584C51.7606 30.808 53.6806 29.344 55.5286 26.992C57.1846 24.904 58.2166 22.648 58.7686 19.96ZM72.1928 31.432V32.512C72.1928 32.776 72.1208 32.944 71.9768 33.016C71.7848 33.088 70.9208 33.16 70.0088 33.16C69.1928 33.16 69.1208 33.112 69.1208 32.536C69.1208 32.416 69.1208 32.152 69.1448 31.768C69.2168 30.496 69.3368 22.768 69.3368 19.72C69.3368 19.096 69.3368 17.944 69.3128 17.248C71.4008 17.368 74.6888 17.44 78.2648 17.44C81.1928 17.44 83.4968 17.416 84.9608 17.344C84.9128 18.328 84.8888 22.096 84.8888 25.216C84.8888 27.04 84.9368 29.272 85.0328 32.2C85.0328 32.296 85.0328 32.32 85.0328 32.536C85.0328 32.824 84.9848 32.968 84.8408 33.016C84.6968 33.112 83.7368 33.184 82.9448 33.184C82.0328 33.184 81.9848 33.16 81.9848 32.656V31.432H72.1928ZM81.9848 28.696V20.152C78.5528 20.152 77.9768 20.152 76.8488 20.152C75.2648 20.152 75.2648 20.152 72.1928 20.152V28.696H81.9848ZM103.053 22.552C102.021 22.624 100.389 22.696 99.4293 22.696C98.2773 22.696 98.0373 22.648 97.9653 22.384C97.8933 22.168 97.8213 21.4 97.8213 20.848C97.8213 20.656 97.8213 20.464 97.8453 20.032C98.4933 20.08 98.8773 20.104 99.6693 20.104C100.965 20.104 101.781 20.08 103.029 19.984C103.005 16.936 102.981 16.552 102.741 15.424C103.917 15.448 104.805 15.544 105.573 15.736C105.933 15.832 106.077 15.952 106.077 16.192C106.077 16.288 106.053 16.36 105.981 16.552C105.741 17.104 105.621 18.04 105.573 19.72C106.461 19.6 107.229 19.432 108.669 19.096C108.789 19.048 108.837 19.048 108.909 19.048C109.053 19.048 109.125 19.12 109.173 19.288C109.221 19.504 109.293 20.416 109.293 20.92C109.293 21.52 109.269 21.616 109.029 21.712C108.645 21.904 107.589 22.072 105.549 22.336C105.549 23.992 105.693 26.728 105.861 28.288C107.373 28.936 108.405 29.488 109.461 30.232C110.133 30.712 110.277 30.88 110.277 31.048C110.277 31.312 109.845 32.128 109.341 32.824C109.053 33.232 108.909 33.352 108.741 33.352C108.573 33.352 108.573 33.352 108.021 32.824C107.493 32.296 106.941 31.888 105.885 31.192C105.885 31.288 105.885 31.36 105.885 31.384C105.885 33.496 104.133 34.888 101.469 34.888C98.7573 34.888 96.9813 33.448 96.9813 31.288C96.9813 29.128 98.8053 27.52 101.229 27.52C102.117 27.52 102.573 27.544 103.221 27.64C103.125 25.768 103.125 25.768 103.053 22.552ZM103.221 30.112C102.597 29.872 102.045 29.752 101.397 29.752C100.197 29.752 99.4053 30.304 99.4053 31.144C99.4053 31.912 100.149 32.392 101.301 32.392C102.573 32.392 103.245 31.816 103.245 30.712C103.245 30.376 103.221 30.112 103.221 30.112ZM94.5813 27.4C94.7493 28.048 94.9173 28.36 95.3973 29.008C95.4693 29.104 95.4933 29.176 95.4933 29.272C95.4933 29.416 95.4933 29.416 95.0853 30.52C94.5813 31.984 94.2693 33.184 94.1733 34.12C94.1493 34.432 94.0533 34.552 93.7413 34.624C93.4053 34.72 92.7573 34.768 92.1333 34.768C91.8933 34.768 91.7733 34.72 91.7013 34.576C91.4853 34.12 91.1013 32.464 90.9093 31.12C90.7413 29.992 90.6693 28.816 90.6693 27.592C90.6693 24.832 90.9813 22.216 91.8453 17.512C91.9893 16.744 92.0373 16.384 92.1093 15.64C93.2133 15.784 93.9813 16 94.6773 16.336C95.0373 16.528 95.1813 16.696 95.1813 16.912C95.1813 17.056 95.1333 17.176 95.0133 17.368C94.0293 19.048 93.1173 24.232 93.1173 28.072C93.1173 28.648 93.1413 29.56 93.2133 30.712C93.7893 29.224 94.0533 28.552 94.5813 27.4ZM118.541 22.96C118.565 21.712 118.589 20.656 118.613 20.176C117.509 20.248 116.477 20.272 115.565 20.272C114.557 20.272 114.485 20.272 114.437 20.128C114.365 19.984 114.293 18.976 114.293 18.28C114.293 18.184 114.293 18.016 114.293 17.824C115.421 17.872 115.901 17.896 116.501 17.896C117.077 17.896 118.013 17.872 118.733 17.848C118.853 16.456 118.877 15.976 118.877 15.496C118.877 15.28 118.877 15.136 118.853 14.8C120.005 14.824 120.893 14.896 121.589 15.064C121.781 15.112 121.877 15.208 121.877 15.376C121.877 15.496 121.853 15.592 121.733 15.88C121.541 16.336 121.397 16.96 121.301 17.704C122.837 17.584 124.685 17.344 125.429 17.176C126.149 17.008 126.653 16.912 126.773 16.912C127.277 16.864 127.637 16.768 127.781 16.648C127.805 16.624 127.829 16.624 127.829 16.624C127.877 16.624 127.901 16.648 127.949 16.648C128.045 16.648 128.117 16.744 128.165 16.912C128.213 17.272 128.285 18.112 128.285 18.64C128.285 19 128.213 19.096 127.973 19.144C126.557 19.432 123.629 19.792 121.109 20.008C121.085 20.104 121.085 20.152 121.085 20.392C121.037 20.848 121.037 20.896 121.013 22.096C122.069 21.856 123.005 21.736 124.181 21.736C124.349 20.968 124.373 20.776 124.421 20.224C126.269 20.608 127.181 20.944 127.181 21.232C127.181 21.328 127.157 21.4 126.965 21.712C126.893 21.808 126.845 21.88 126.797 22.048C129.893 22.768 131.861 25.048 131.861 28C131.861 30.616 130.445 32.704 127.733 34.144C126.725 34.672 125.309 35.152 124.781 35.152C124.517 35.152 124.325 35.056 124.181 34.864C123.677 34.144 123.365 33.808 122.597 33.16C125.093 32.704 126.317 32.2 127.517 31.216C128.621 30.28 129.149 29.2 129.149 27.856C129.149 25.936 128.021 24.496 126.101 23.944C124.661 27.256 123.701 28.816 121.973 30.592C122.093 31 122.189 31.24 122.405 31.744C122.501 31.936 122.525 32.008 122.525 32.08C122.525 32.32 122.429 32.392 121.877 32.68C121.277 32.992 120.581 33.232 120.341 33.232C120.125 33.232 120.077 33.16 119.813 32.416C118.421 33.4 116.933 33.928 115.469 33.928C113.837 33.928 112.733 32.608 112.733 30.688C112.733 27.688 114.917 24.76 118.541 22.96ZM118.565 25.432C116.453 26.992 115.229 28.792 115.229 30.256C115.229 30.856 115.589 31.216 116.189 31.216C117.005 31.216 118.085 30.76 119.165 29.968C118.829 28.336 118.685 27.232 118.565 25.432ZM121.277 27.808C122.285 26.536 122.957 25.336 123.629 23.632C122.549 23.728 121.973 23.824 120.989 24.16C121.037 25.864 121.085 26.584 121.277 27.808ZM141.257 14.536C141.833 14.536 144.185 15.544 145.697 16.432C146.633 16.984 146.921 17.248 146.921 17.512C146.921 17.728 146.537 18.448 146.129 19.048C145.745 19.6 145.601 19.72 145.409 19.72C145.289 19.72 145.217 19.672 144.929 19.456C143.321 18.232 142.049 17.536 140.249 16.912C139.889 16.768 139.817 16.72 139.817 16.528C139.817 16.288 140.009 15.88 140.441 15.256C140.825 14.68 140.993 14.536 141.257 14.536ZM138.593 26.416C141.041 24.16 143.177 23.272 146.129 23.272C149.417 23.272 151.553 25.216 151.553 28.168C151.553 31 149.753 32.992 146.153 34.144C144.857 34.552 142.721 34.936 141.761 34.936C141.257 34.936 141.137 34.816 140.801 34.12C140.537 33.568 140.249 33.232 139.529 32.728C145.553 32.248 148.529 30.712 148.529 28.096C148.529 26.632 147.497 25.768 145.769 25.768C143.585 25.768 141.329 26.896 139.481 28.888C139.145 29.224 138.833 29.632 138.617 29.992C138.401 30.352 138.257 30.472 138.041 30.472C137.681 30.472 136.841 30.112 136.265 29.68C135.977 29.464 135.881 29.296 135.881 28.912C135.881 28.72 135.881 28.72 135.953 28.144C135.953 28.072 135.953 27.904 135.977 27.64C136.097 26.104 136.169 25.456 136.457 23.296C136.505 23.032 136.505 23.032 136.673 21.904C136.697 21.832 136.745 21.376 136.865 20.488C136.889 20.272 136.913 20.08 136.913 19.696C138.065 19.864 139.145 20.128 139.601 20.392C139.793 20.488 139.889 20.608 139.865 20.752C139.865 20.848 139.817 20.92 139.745 21.064C139.481 21.472 139.409 21.688 139.193 22.6C138.977 23.512 138.641 25.624 138.593 26.416ZM165.425 21.376C162.425 22.024 159.713 24.784 158.513 28.36C158.177 29.32 158.033 30.136 158.009 30.928C158.009 31.144 157.985 31.216 157.913 31.264C157.721 31.36 156.761 31.48 156.089 31.48C155.633 31.48 155.513 31.456 155.441 31.288C155.249 30.928 155.033 27.736 155.033 25.48C155.033 23.8 155.081 22.936 155.321 20.44C155.393 19.624 155.441 18.88 155.441 18.112C157.769 18.472 158.465 18.688 158.465 19.072C158.465 19.192 158.465 19.216 158.225 19.696C158.105 19.936 157.985 20.392 157.841 21.16C157.553 22.72 157.433 24.16 157.409 26.344C158.033 24.592 158.465 23.704 159.089 22.864C160.649 20.776 162.593 19.552 165.257 19C165.161 17.512 164.945 16.336 164.609 15.328C165.881 15.328 166.865 15.4 167.513 15.496C167.897 15.544 168.065 15.712 168.065 15.976C168.065 16.048 168.065 16.096 168.017 16.288C167.969 16.528 167.945 16.744 167.945 17.08C167.945 17.512 167.969 18.088 167.993 18.88C171.785 19.168 174.425 21.856 174.425 25.408C174.425 29.512 171.569 32.152 167.153 32.152C166.961 32.152 166.865 32.152 166.601 32.152C165.929 33.184 164.921 34 163.433 34.744C162.785 35.08 162.089 35.32 161.801 35.32C161.609 35.32 161.441 35.248 161.321 35.08C160.793 34.312 160.337 33.856 159.689 33.496C161.657 32.968 162.809 32.368 163.673 31.456C162.761 31.024 162.113 30.496 161.513 29.704C161.081 29.128 160.769 28.504 160.769 28.144C160.769 27.856 160.817 27.76 161.225 27.304C161.537 26.968 161.873 26.392 161.969 25.984C162.521 27.232 162.785 27.688 163.337 28.24C163.817 28.744 164.273 29.032 164.945 29.272C165.281 28.24 165.497 26.08 165.497 23.656C165.497 23.152 165.497 23.128 165.449 22.216C165.425 21.736 165.425 21.736 165.425 21.376ZM168.113 21.256C168.209 23.344 168.209 23.344 168.209 24.16C168.209 26.176 167.993 28.264 167.681 29.608C170.273 29.32 171.665 27.928 171.665 25.576C171.665 23.2 170.417 21.664 168.113 21.256ZM184.819 23.968C186.379 23.104 187.603 22.744 189.043 22.744C192.427 22.744 194.827 25.048 194.827 28.312C194.827 30.544 193.651 32.56 191.683 33.736C190.315 34.552 188.635 34.96 186.739 34.96C183.691 34.96 181.915 33.736 181.915 31.648C181.915 29.752 183.499 28.408 185.755 28.408C187.795 28.408 189.259 29.44 190.243 31.552C191.467 30.664 191.971 29.728 191.971 28.432C191.971 26.368 190.507 25.024 188.203 25.024C185.851 25.024 183.331 26.2 181.243 28.288C180.859 28.672 180.499 29.08 180.067 29.632C179.899 29.872 179.779 29.968 179.635 29.968C179.203 29.968 177.499 28.288 177.499 27.856C177.499 27.64 177.595 27.52 178.123 27.136C178.675 26.704 179.467 26.008 180.475 25.048C182.803 22.84 184.507 20.992 187.027 17.92C184.027 18.304 182.011 18.64 181.267 18.904C181.147 18.928 181.075 18.952 181.003 18.952C180.811 18.952 180.691 18.832 180.547 18.472C180.259 17.752 180.115 16.96 180.043 15.904C180.691 16 181.147 16.024 181.675 16.024C182.827 16.024 184.771 15.856 187.291 15.568C188.179 15.472 188.467 15.4 189.139 15.136C189.355 15.04 189.475 15.016 189.619 15.016C189.955 15.016 190.291 15.304 190.915 16.264C191.371 16.888 191.515 17.2 191.515 17.392C191.515 17.704 191.443 17.8 190.915 18.136C190.483 18.4 190.219 18.616 189.667 19.144C188.467 20.296 188.443 20.296 186.955 21.808C185.899 22.888 185.779 23.008 184.819 23.968ZM187.771 32.536C187.483 31.744 187.243 31.384 186.739 31.048C186.379 30.808 185.971 30.688 185.515 30.688C184.771 30.688 184.291 31.048 184.291 31.624C184.291 32.32 185.035 32.752 186.187 32.752C186.715 32.752 187.171 32.704 187.771 32.536Z" fill="#13132D"/>
<rect x="4.5" y="4.5" width="209" height="40" stroke="#B8CADE"/>
<circle cx="4" cy="4" r="3.5" fill="#FBFDFF" stroke="#B8CADE"/>
<circle cx="109" cy="4" r="3.5" fill="#FBFDFF" stroke="#B8CADE"/>
<circle cx="214" cy="4" r="3.5" fill="#FBFDFF" stroke="#B8CADE"/>
<circle cx="4" cy="45" r="3.5" fill="#FBFDFF" stroke="#B8CADE"/>
<circle cx="109" cy="45" r="3.5" fill="#FBFDFF" stroke="#B8CADE"/>
<circle cx="214" cy="45" r="3.5" fill="#FBFDFF" stroke="#B8CADE"/>
</svg>
