<svg width="384" height="49" viewBox="0 0 384 49" fill="none" xmlns="http://www.w3.org/2000/svg">
<rect x="4.5" y="4.5" width="375" height="40" stroke="#B8CADE"/>
<circle cx="4" cy="4" r="3.5" fill="#FBFDFF" stroke="#B8CADE"/>
<circle cx="192" cy="4" r="3.5" fill="#FBFDFF" stroke="#B8CADE"/>
<circle cx="380" cy="4" r="3.5" fill="#FBFDFF" stroke="#B8CADE"/>
<circle cx="4" cy="45" r="3.5" fill="#FBFDFF" stroke="#B8CADE"/>
<circle cx="192" cy="45" r="3.5" fill="#FBFDFF" stroke="#B8CADE"/>
<circle cx="380" cy="45" r="3.5" fill="#FBFDFF" stroke="#B8CADE"/>
<path d="M23.296 20.512L25.096 19.216C26.176 19.912 26.632 20.224 27.616 20.944C29.464 19.648 30.208 19 31.36 17.776H26.008C23.992 19.6 22.12 20.8 19.552 21.928C19.168 21.208 18.736 20.68 18.016 20.032C20.608 19 22.624 17.776 24.256 16.264C25.36 15.232 25.912 14.584 26.296 13.864L29.152 14.368C28.648 14.968 28.576 15.064 27.952 15.76H31.984C32.848 15.76 33.496 15.736 34.024 15.64L35.224 16.936C33.832 18.544 33.232 19.192 32.248 20.104C28.408 23.656 24.568 25.792 19.288 27.232C19 26.392 18.616 25.72 17.992 25.024C21.136 24.328 23.536 23.44 25.672 22.216C24.952 21.592 24.304 21.112 23.296 20.512ZM34.768 26.272H29.488C27.808 27.544 27.088 28 25.672 28.744C24.112 29.56 23.056 29.992 21.352 30.52C20.872 29.44 20.656 29.104 20.032 28.408C24.496 27.328 28.792 24.712 30.472 22.072L32.896 22.84C32.296 23.584 32.296 23.584 31.672 24.28H35.008C35.896 24.28 36.496 24.256 37.048 24.16L38.392 25.552C38.104 25.912 38.056 25.96 37.624 26.56C35.44 29.56 33.208 31.384 29.632 33.112C26.848 34.456 24.664 35.128 20.68 35.8C20.224 34.648 20.08 34.384 19.288 33.424C23.416 33.04 26.32 32.272 28.912 30.88C28 30.04 27.448 29.632 26.32 28.96L28.36 27.712C29.488 28.456 29.992 28.84 31 29.656C32.32 28.792 33.208 28.024 34.768 26.272ZM54.136 25.768H51.088C50.224 25.768 49.624 25.792 48.976 25.888V24.28C48.592 24.928 48.544 25.024 48.064 26.32C47.536 25.408 47.272 24.832 46.912 23.752C46.936 25.288 46.96 26.296 46.96 26.968V32.8C46.96 34 47.008 34.912 47.104 35.632H44.488C44.584 34.888 44.632 33.976 44.632 32.8V28.048C44.68 26.32 44.728 25.264 44.776 24.856C44.152 27.112 43.624 28.336 42.424 30.304C42.064 29.08 41.752 28.36 41.248 27.472C42.16 26.368 42.76 25.24 43.432 23.536C43.936 22.192 44.104 21.64 44.296 20.68H43.384C42.688 20.68 42.232 20.704 41.848 20.776V18.376C42.232 18.448 42.664 18.472 43.384 18.472H44.632V16.624C44.632 15.4 44.584 14.8 44.488 14.224H47.08C46.984 14.872 46.96 15.52 46.96 16.6V18.472H47.584C48.184 18.472 48.448 18.448 48.88 18.376V20.752C48.448 20.704 48.064 20.68 47.56 20.68H47.056C47.32 21.592 48.112 22.888 48.976 23.8V23.584C49.672 23.68 50.296 23.704 51.304 23.704H54.136V22.456H52C50.8 22.456 50.512 22.456 49.816 22.552V20.368C50.464 20.44 50.848 20.464 51.952 20.464H54.136V19.264H51.592C50.536 19.264 50.128 19.288 49.408 19.36V17.08C50.08 17.176 50.68 17.2 51.592 17.2H51.928C51.616 16.456 51.256 15.856 50.608 14.968L52.792 14.224C53.488 15.328 53.92 16.168 54.328 17.2H56.344C57.016 16.096 57.376 15.328 57.712 14.224L60.184 14.872C59.632 16 59.248 16.648 58.864 17.2H59.992C60.904 17.2 61.624 17.152 62.272 17.08V19.384C61.6 19.288 60.976 19.264 60.016 19.264H56.488V20.464H59.32C60.472 20.464 60.952 20.44 61.624 20.368V22.552C60.928 22.48 60.568 22.456 59.32 22.456H56.488V23.704H60.208C61.144 23.704 61.936 23.656 62.608 23.584V25.888C61.792 25.816 61.072 25.768 60.232 25.768H56.656C57.016 26.848 57.328 27.4 58.096 28.48C58.912 27.76 59.488 27.04 60.232 25.936L62.08 27.256C61.12 28.48 60.496 29.176 59.488 30.064C60.664 31.192 61.576 31.816 63.136 32.56C62.488 33.304 62.104 33.88 61.624 34.84C59.032 33.184 57.52 31.48 56.392 28.888C56.44 29.632 56.464 30.112 56.464 30.544V33.736C56.464 35.08 55.744 35.512 53.536 35.512C53.2 35.512 52.624 35.488 51.928 35.44C51.808 34.432 51.664 33.832 51.304 33.112C52.12 33.256 52.72 33.328 53.488 33.328C54.016 33.328 54.136 33.208 54.136 32.776V30.64C52.984 31.504 51.688 32.392 50.608 33.016C49.48 33.664 49.264 33.808 48.688 34.24L47.728 31.768C48.4 31.576 48.832 31.384 49.648 31C51.112 30.256 51.592 29.992 54.136 28.312V25.768ZM48.928 27.208L50.536 25.936C51.688 26.992 52.12 27.472 52.864 28.552L51.16 29.824C50.416 28.744 50.056 28.312 48.928 27.208ZM70.2552 21.256C69.3192 21.328 69.2472 21.352 68.1432 21.424C67.7112 21.448 67.4472 21.472 67.1592 21.496C66.9432 21.52 66.9192 21.52 66.8952 21.52C66.7032 21.52 66.6072 21.448 66.5352 21.208C66.4152 20.824 66.2472 19.552 66.2232 18.832C66.4872 18.856 67.1832 18.88 68.0472 18.88C68.3112 18.88 70.2072 18.76 71.0472 18.688C71.4552 16.744 71.5992 15.736 71.5992 14.44C74.0712 14.776 74.9592 15.064 74.9592 15.52C74.9592 15.688 74.9352 15.736 74.5752 16.288C74.3832 16.576 74.3112 16.84 73.9032 18.328C75.0312 18.136 75.7032 17.968 76.5912 17.68C76.7592 17.632 76.8312 17.608 76.9512 17.608C77.1192 17.608 77.1672 17.728 77.3112 18.424C77.4312 19.024 77.5032 19.528 77.5032 19.792C77.5032 20.08 77.4312 20.128 76.8072 20.272C75.9912 20.464 74.5992 20.704 73.1112 20.896C72.2232 23.584 71.6232 25.024 70.5192 27.28C69.6792 28.96 69.1992 29.848 68.5512 30.856C68.3592 31.144 68.2392 31.24 68.0712 31.24C67.8312 31.24 67.1592 30.88 66.3192 30.256C65.9352 29.992 65.8392 29.872 65.8392 29.704C65.8392 29.536 65.9352 29.392 66.2472 28.96C66.9432 28.096 67.8552 26.608 68.6472 25.024C69.3192 23.704 69.5592 23.152 70.2552 21.256ZM85.8312 21.688C85.8312 21.88 85.4472 22.6 84.9672 23.296C84.6792 23.704 84.5352 23.824 84.3672 23.824C84.2472 23.824 84.1512 23.776 83.9832 23.608C83.3832 23.032 82.5432 22.408 81.6552 21.856C81.0792 21.496 81.0792 21.496 80.0232 21.016C79.6872 20.872 79.5672 20.776 79.5672 20.584C79.5672 20.416 79.6872 20.2 80.0472 19.648C80.6232 18.808 80.7672 18.664 80.9832 18.664C81.4392 18.664 83.2152 19.576 84.4872 20.44C85.5192 21.136 85.8312 21.424 85.8312 21.688ZM80.4312 31.672C80.4312 33.904 78.7992 35.248 76.0392 35.248C73.4232 35.248 71.6472 33.808 71.6472 31.672C71.6472 29.464 73.4952 27.808 75.9672 27.808C76.5432 27.808 76.8072 27.832 77.7912 27.976C77.6952 26.824 77.6952 26.368 77.5992 24.136C77.5992 23.68 77.5512 23.056 77.5032 22.288C78.7272 22.408 79.6632 22.552 80.1192 22.744C80.3112 22.816 80.4072 22.936 80.4072 23.128C80.4072 23.248 80.3832 23.344 80.3592 23.512C80.2392 24.016 80.2152 24.376 80.2152 25.024C80.2152 25.912 80.2872 27.424 80.3592 28.6C82.0632 29.368 82.7592 29.752 83.9592 30.688C84.4872 31.096 84.6792 31.312 84.6792 31.504C84.6792 31.744 84.5592 31.96 83.8872 33.04C83.5992 33.52 83.3832 33.736 83.2152 33.736C83.0712 33.736 83.0712 33.736 82.3992 33.112C81.8712 32.584 81.2712 32.176 80.4312 31.672ZM77.7672 30.496C77.2872 30.256 76.6392 30.112 75.9912 30.112C74.8392 30.112 74.0472 30.664 74.0472 31.504C74.0472 32.296 74.7672 32.8 75.8472 32.8C77.1192 32.8 77.7912 32.152 77.7912 30.88C77.7912 30.688 77.7912 30.496 77.7672 30.496ZM106.463 18.424C106.367 18.424 106.319 18.376 106.223 18.232C105.743 17.32 105.215 16.624 104.447 15.808C104.303 15.664 104.303 15.664 104.303 15.592C104.303 15.448 104.447 15.304 104.855 14.992C105.239 14.728 105.383 14.632 105.527 14.632C105.719 14.632 105.959 14.824 106.559 15.472C107.327 16.312 107.879 17.08 107.879 17.272C107.879 17.416 107.807 17.512 107.519 17.752C106.991 18.208 106.655 18.424 106.463 18.424ZM110.327 15.736C110.327 15.88 110.135 16.048 109.607 16.432C109.319 16.648 109.079 16.768 108.959 16.768C108.887 16.768 108.815 16.72 108.719 16.552C108.215 15.688 107.639 14.92 106.919 14.2C106.847 14.128 106.799 14.056 106.799 14.008C106.799 13.84 107.807 13.12 108.023 13.144C108.215 13.168 108.287 13.192 108.551 13.432C109.271 14.104 110.327 15.448 110.327 15.736ZM97.1266 24.496C93.2386 24.52 91.9186 24.52 90.0706 24.592C89.8066 24.592 89.6386 24.592 89.5426 24.592C89.4466 24.592 89.3746 24.592 89.3266 24.616C89.2306 24.616 89.1586 24.616 89.1106 24.616C88.8706 24.616 88.7026 24.496 88.6546 24.232C88.5346 23.632 88.4626 22.864 88.4626 21.76C89.9026 21.904 93.2146 22 97.7506 22C101.831 22 106.535 21.928 107.279 21.856C107.375 21.856 107.447 21.856 107.495 21.856C107.831 21.856 107.831 21.88 107.831 23.464C107.831 24.52 107.783 24.64 107.447 24.64C107.423 24.64 107.351 24.64 107.279 24.64C106.175 24.592 105.719 24.592 100.079 24.52C99.9826 26.344 99.8866 27.112 99.5746 28.216C98.8306 30.928 97.4146 32.824 95.0146 34.312C94.3426 34.744 93.8146 34.984 93.5986 34.984C93.4786 34.984 93.3826 34.936 93.1906 34.744C92.3266 33.856 92.0386 33.64 91.1746 33.208C95.4226 31.216 96.9826 28.936 97.1266 24.496ZM91.3426 16.264C91.8226 16.336 91.9906 16.336 92.5426 16.36C93.0946 16.384 93.5746 16.408 93.8386 16.408C95.0626 16.48 95.4226 16.48 97.0066 16.48C100.631 16.48 102.359 16.432 103.655 16.288C103.679 16.288 103.727 16.288 103.775 16.288C104.111 16.288 104.183 16.456 104.183 17.2C104.183 17.248 104.183 17.464 104.183 17.704C104.183 17.848 104.183 18.088 104.159 18.376C104.159 19.024 104.111 19.096 103.655 19.096C103.391 19.096 101.639 19.048 99.9586 19.024C99.5986 19 98.9986 19 98.1346 19C95.0626 19 92.9026 19.048 92.1346 19.144C92.0626 19.168 91.9906 19.168 91.9426 19.168C91.7026 19.168 91.5826 19.072 91.5346 18.856C91.4386 18.352 91.3426 17.2 91.3426 16.264ZM113.064 23.248C115.008 23.44 116.712 23.488 121.728 23.488C126.12 23.488 128.64 23.44 131.064 23.272C131.136 23.272 131.28 23.272 131.376 23.272C132.096 23.272 132.096 23.296 132.096 25.216C132.096 26.2 132.024 26.368 131.616 26.368C131.616 26.368 131.544 26.368 131.52 26.368C129.936 26.296 129.048 26.296 122.112 26.296C119.568 26.296 118.296 26.32 116.088 26.392C115.92 26.392 115.728 26.392 115.392 26.392C114.624 26.392 114.504 26.416 114.048 26.488C113.928 26.488 113.832 26.512 113.784 26.512C113.52 26.512 113.352 26.392 113.304 26.176C113.16 25.576 113.064 24.352 113.064 23.248ZM143.546 20.32C142.442 21.76 141.05 23.176 139.442 24.496C138.722 25.072 138.338 25.312 138.146 25.312C137.954 25.312 137.93 25.312 137.474 24.832C137.042 24.4 136.442 23.968 135.77 23.608C138.338 22.048 139.874 20.656 141.362 18.568C142.37 17.152 143.114 15.76 143.498 14.44C146.042 15.376 146.642 15.688 146.642 16.024C146.642 16.144 146.57 16.24 146.33 16.408C146.09 16.576 145.778 17.008 145.13 17.992C145.346 17.992 145.37 17.992 145.562 17.992C146.402 18.016 147.002 18.016 147.146 18.016C149.474 18.016 150.074 17.968 150.818 17.68C151.01 17.608 151.082 17.584 151.226 17.584C151.562 17.584 151.898 17.848 152.642 18.736C153.242 19.408 153.41 19.696 153.41 19.96C153.41 20.176 153.338 20.296 153.074 20.56C152.882 20.752 152.594 21.208 152.234 21.904C149.978 26.008 148.298 28.264 145.586 30.712C143.45 32.656 140.066 34.936 139.322 34.936C139.106 34.936 138.914 34.84 138.722 34.648C138.002 33.952 137.402 33.52 136.706 33.232C140.018 31.624 142.586 29.824 144.866 27.544C144.698 27.376 144.698 27.376 144.17 26.824C143.666 26.296 143.114 25.84 141.89 24.928C141.746 24.808 141.698 24.736 141.698 24.64C141.698 24.52 142.01 24.16 142.85 23.296C143.258 22.888 143.354 22.816 143.498 22.816C143.882 22.816 145.298 23.968 146.738 25.432C148.178 23.56 149.21 21.784 149.786 20.248C147.05 20.296 147.05 20.296 143.546 20.32ZM168.224 18.568C169.544 18.208 170.696 18.04 171.704 18.04C174.944 18.04 176.984 19.984 176.984 23.104C176.984 26.2 174.728 28.048 170.984 28.048C170.168 28.048 169.328 27.952 169.016 27.832C168.824 27.76 168.728 27.64 168.68 27.424C168.512 26.632 168.2 25.864 167.624 24.904C169.112 25.264 170.024 25.408 171.032 25.408C172.976 25.408 174.128 24.52 174.128 22.984C174.128 22.384 173.96 21.784 173.72 21.448C173.288 20.848 172.352 20.464 171.272 20.464C169.904 20.464 168.008 21.064 164.048 22.768C165.56 26.536 165.56 26.536 166.4 28.84C167.408 31.552 168.248 34 168.248 34.216C168.248 34.408 168.104 34.528 167.624 34.744C166.928 35.056 166.04 35.344 165.728 35.344C165.488 35.344 165.464 35.296 165.224 34.408C164.12 30.376 163.136 27.448 161.672 23.872C159.848 24.712 158.984 25.192 158.48 25.672C158.336 25.792 158.192 25.864 158.024 25.864C157.712 25.864 157.424 25.624 156.968 24.976C156.488 24.304 156.296 23.944 155.888 23.176C157.424 22.744 158.408 22.408 160.664 21.472C159.416 18.616 159.248 18.28 158.312 17.08C159.848 16.48 160.712 16.216 161.264 16.216C161.768 16.216 161.888 16.36 161.96 17.008C162.032 17.68 162.08 17.92 162.368 18.592C162.392 18.64 162.608 19.144 163.112 20.44C165.224 19.576 165.968 19.288 167.552 18.784C167.456 18.736 167.432 18.712 167.36 18.616C166.544 17.56 166.04 17.032 164.984 16.144C164.936 16.048 164.912 16 164.912 15.928C164.912 15.784 164.912 15.784 165.728 15.064C166.04 14.776 166.52 14.488 166.664 14.488C166.784 14.488 166.904 14.536 167.048 14.632C168.512 15.736 169.52 16.744 169.52 17.152C169.52 17.344 168.8 18.136 168.224 18.568ZM183.047 20.296H183.983C183.983 17.632 183.887 16.24 183.695 15.472C184.127 15.496 184.127 15.496 185.063 15.544C185.351 15.544 186.647 15.76 186.815 15.808C186.983 15.88 187.055 15.976 187.055 16.12C187.055 16.24 187.055 16.24 186.911 16.744C186.791 17.08 186.767 17.584 186.719 20.296C187.319 20.296 189.095 20.296 192.071 20.272C192.071 17.536 191.999 16.456 191.807 15.304C193.103 15.376 193.823 15.448 194.519 15.568C195.023 15.64 195.167 15.736 195.167 15.952C195.167 16.12 195.143 16.192 194.999 16.576C194.927 16.744 194.855 17.488 194.831 18.256C194.831 18.736 194.831 19.696 194.831 19.984C194.831 20.128 194.831 20.128 194.831 20.248C197.255 20.2 198.167 20.176 198.887 20.104C198.983 20.08 199.055 20.08 199.127 20.08C199.247 20.08 199.343 20.128 199.391 20.2C199.463 20.344 199.511 20.92 199.511 21.688C199.511 22.816 199.463 22.936 199.103 22.936C199.055 22.936 199.055 22.936 198.527 22.888C197.711 22.816 197.519 22.816 194.783 22.816C194.639 26.416 194.159 28.336 192.959 30.256C191.927 31.912 190.583 33.136 188.735 34.168C188.087 34.528 187.223 34.864 186.983 34.864C186.767 34.864 186.743 34.84 186.239 34.312C185.711 33.736 185.375 33.496 184.631 33.04C188.087 31.792 189.887 30.376 190.991 28.048C191.663 26.608 191.951 25.192 192.047 22.792C191.447 22.792 191.375 22.792 190.487 22.792C190.271 22.792 189.599 22.792 188.615 22.816C188.183 22.84 187.535 22.84 186.671 22.864C186.671 24.568 186.671 24.568 186.719 26.728C186.719 26.824 186.719 26.992 186.719 27.04C186.719 27.376 186.647 27.496 186.383 27.592C186.095 27.664 185.351 27.736 184.775 27.736C183.935 27.736 183.815 27.664 183.815 27.232C183.815 27.136 183.815 26.992 183.815 26.872C183.911 24.688 183.935 24.304 183.959 22.912C182.711 22.936 180.503 23.08 179.927 23.176C179.879 23.2 179.831 23.2 179.783 23.2C179.591 23.2 179.471 23.104 179.423 22.888C179.303 22.48 179.183 21.328 179.135 20.128C180.359 20.272 181.055 20.296 183.047 20.296ZM201.938 23.248C203.882 23.44 205.586 23.488 210.602 23.488C214.994 23.488 217.514 23.44 219.938 23.272C220.01 23.272 220.154 23.272 220.25 23.272C220.97 23.272 220.97 23.296 220.97 25.216C220.97 26.2 220.898 26.368 220.49 26.368C220.49 26.368 220.418 26.368 220.394 26.368C218.81 26.296 217.922 26.296 210.986 26.296C208.442 26.296 207.17 26.32 204.962 26.392C204.794 26.392 204.602 26.392 204.266 26.392C203.498 26.392 203.378 26.416 202.922 26.488C202.802 26.488 202.706 26.512 202.658 26.512C202.394 26.512 202.226 26.392 202.178 26.176C202.034 25.576 201.938 24.352 201.938 23.248ZM244.098 17.104C244.098 17.344 243.066 18.16 242.754 18.16C242.658 18.16 242.61 18.112 242.514 17.944C241.866 16.912 241.458 16.36 240.714 15.592C240.618 15.496 240.594 15.472 240.594 15.4C240.594 15.208 241.53 14.488 241.77 14.488C241.986 14.488 242.274 14.728 242.802 15.304C243.498 16.048 244.098 16.888 244.098 17.104ZM240.282 19.816C240.162 19.816 240.114 19.768 240.018 19.624C239.514 18.664 239.01 18.016 238.242 17.2C238.098 17.032 238.098 17.032 238.098 16.96C238.098 16.816 238.218 16.672 238.65 16.36C239.01 16.096 239.202 16 239.322 16C239.514 16 239.778 16.216 240.354 16.84C241.122 17.728 241.674 18.472 241.674 18.688C241.674 18.928 240.594 19.816 240.282 19.816ZM229.002 26.176C229.002 29.176 229.026 29.632 229.218 29.944C229.602 30.52 230.658 30.736 232.962 30.736C235.218 30.736 236.37 30.64 239.73 30.184C239.802 30.16 239.874 30.16 239.946 30.16C240.186 30.16 240.306 30.28 240.354 30.544C240.426 30.928 240.546 32.128 240.546 32.536C240.546 32.896 240.426 33.064 240.09 33.16C239.346 33.328 235.986 33.52 233.25 33.52C230.466 33.52 229.05 33.328 227.922 32.8C227.082 32.392 226.53 31.72 226.338 30.88C226.218 30.304 226.17 29.776 226.17 28.816C226.17 28.576 226.17 28.288 226.17 27.88C226.218 25.36 226.218 25.048 226.218 23.392C226.218 19.24 226.146 17.728 225.93 16.6C228.882 16.84 229.53 16.984 229.53 17.44C229.53 17.56 229.506 17.608 229.386 17.872C229.314 18.04 229.242 18.352 229.17 18.832C229.074 19.552 229.05 20.104 229.05 21.376C229.026 22.312 229.026 22.96 229.026 23.32C233.178 22.096 236.562 20.416 237.954 18.88C239.13 20.344 239.826 21.448 239.826 21.784C239.826 22 239.73 22.072 239.25 22.24C238.914 22.36 238.29 22.624 237.354 23.104C234.402 24.52 232.29 25.288 229.002 26.176ZM257.022 25.792C258.894 27.04 260.166 28 261.654 29.392C263.19 30.784 264.126 31.792 264.126 32.056C264.126 32.272 263.814 32.656 263.07 33.376C262.518 33.904 262.278 34.072 262.11 34.072C262.014 34.072 261.894 34.024 261.75 33.904C261.486 33.592 261.486 33.592 260.382 32.344C259.062 30.856 257.262 29.272 255.174 27.784C253.59 29.44 251.454 31.24 249.726 32.416C248.358 33.352 247.062 34.072 246.774 34.072C246.534 34.072 246.51 34.048 245.934 33.4C245.598 33.016 245.046 32.536 244.446 32.104C247.206 30.832 249.246 29.464 251.526 27.376C253.998 25.12 255.63 23.032 257.55 19.72C249.438 19.768 249.438 19.768 248.118 19.912C247.83 19.936 247.782 19.936 247.734 19.936C247.47 19.936 247.326 19.816 247.278 19.552C247.158 18.784 247.11 18.064 247.11 16.792C248.742 17.008 251.286 17.104 254.766 17.104C256.182 17.104 257.67 17.056 258.462 16.96C258.774 16.936 258.822 16.912 259.326 16.744C259.422 16.696 259.47 16.696 259.614 16.696C260.022 16.696 260.454 17.032 261.03 17.8C261.486 18.448 261.75 18.952 261.75 19.216C261.75 19.504 261.678 19.6 261.054 20.176C260.67 20.56 260.502 20.752 259.758 21.976C259.038 23.176 257.934 24.688 257.022 25.792ZM272.998 23.872C272.494 23.416 272.302 23.08 272.086 22.336C271.774 21.28 271.678 20.632 271.39 17.68C271.294 16.528 271.198 15.952 270.958 15.136C272.422 15.16 273.358 15.232 274.006 15.4C274.366 15.496 274.534 15.664 274.534 15.928C274.534 16.024 274.51 16.144 274.462 16.336C274.294 16.912 274.222 17.344 274.222 17.968C274.222 19.144 274.462 21.064 274.726 21.904C274.87 22.36 275.014 22.528 275.278 22.528C275.854 22.528 277.966 21.424 279.118 20.536C279.43 20.296 279.478 20.272 279.598 20.272C279.814 20.272 280.03 20.44 280.39 20.896C280.99 21.712 281.47 22.6 281.47 22.936C281.47 23.2 281.302 23.368 280.894 23.488C279.406 23.896 276.958 24.856 275.302 25.648C272.374 27.088 271.054 28.408 271.054 29.896C271.054 31.36 272.278 31.96 275.374 31.96C277.174 31.96 278.806 31.792 281.014 31.432C281.11 31.408 281.278 31.384 281.326 31.384C281.518 31.384 281.638 31.48 281.734 31.672C281.806 31.912 281.974 33.376 281.974 33.952C281.974 34.288 281.878 34.408 281.566 34.504C281.038 34.624 278.134 34.792 276.31 34.792C273.238 34.792 271.198 34.384 269.926 33.52C268.846 32.776 268.27 31.6 268.27 30.16C268.27 29.056 268.582 28.072 269.23 27.112C270.07 25.864 270.982 25.072 272.998 23.872ZM297.217 19.36C296.545 24.424 295.753 27.184 294.289 29.704C293.137 31.696 291.553 32.8 289.921 32.8C287.425 32.8 285.649 30.352 285.649 26.944C285.649 23.152 287.569 19.888 290.857 18.16C292.465 17.296 294.193 16.912 296.473 16.912C301.489 16.912 305.209 20.464 305.209 25.216C305.209 29.416 303.145 32.44 299.161 34.144C298.369 34.48 297.745 34.672 297.433 34.672C297.145 34.672 297.025 34.576 296.713 34.12C296.305 33.496 295.849 33.04 295.201 32.608C300.145 31.336 302.377 29.008 302.377 25.12C302.377 23.128 301.537 21.448 300.049 20.392C299.209 19.816 298.537 19.576 297.217 19.36ZM294.481 19.48C292.777 19.84 291.937 20.248 290.833 21.208C289.225 22.624 288.313 24.64 288.313 26.896C288.313 28.744 288.913 29.824 289.921 29.824C291.121 29.824 292.345 28.168 293.257 25.312C293.833 23.512 294.121 22.144 294.481 19.48ZM320.61 18.04H316.386C315.426 18.04 314.922 18.064 314.514 18.136V15.88C315.186 15.976 315.906 16 317.106 16H320.61C320.586 15.184 320.562 14.896 320.442 14.248H323.034C322.938 14.848 322.914 15.208 322.89 16H326.706C327.81 16 328.65 15.952 329.322 15.88V18.136C328.77 18.064 328.146 18.04 327.018 18.04H322.89V19.144H326.466C327.306 19.144 327.714 19.12 328.386 19.072C328.314 19.624 328.29 20.032 328.29 20.824V25.6C328.29 26.368 328.314 26.728 328.386 27.28C327.714 27.232 327.234 27.208 326.466 27.208H322.89V28.288H327.114C328.314 28.288 328.842 28.264 329.418 28.192V30.424C328.89 30.352 328.218 30.328 327.114 30.328H322.89C322.89 31.072 322.938 31.624 323.034 32.248H320.442C320.562 31.552 320.586 31.192 320.61 30.328H316.962C316.146 30.328 315.234 30.352 314.682 30.4V28.192C315.162 28.264 315.714 28.288 316.962 28.288H320.61V27.208H317.346C316.65 27.208 316.05 27.232 315.426 27.28C315.498 26.656 315.522 26.32 315.522 25.576V20.68C315.522 19.984 315.498 19.72 315.426 19.072C316.026 19.12 316.53 19.144 317.322 19.144H320.61V18.04ZM320.61 20.992H317.778V22.288H320.61V20.992ZM322.89 20.992V22.288H325.962V20.992H322.89ZM320.61 23.992H317.778V25.336H320.61V23.992ZM322.89 23.992V25.336H325.962V23.992H322.89ZM308.634 16.168L310.458 14.464C312.042 15.832 312.906 16.72 314.466 18.616L312.546 20.488C311.106 18.544 310.386 17.728 308.634 16.168ZM308.562 25.528V23.032C309.162 23.128 309.546 23.152 310.41 23.152H312.114C312.786 23.152 313.338 23.128 313.89 23.056C313.818 23.728 313.794 24.304 313.794 25.552V30.496C314.178 31.096 314.418 31.384 314.874 31.672C316.002 32.416 317.322 32.656 320.202 32.656C324.858 32.656 327.522 32.536 330.066 32.224C329.634 33.448 329.586 33.616 329.37 34.936C327.45 35.008 324.066 35.056 321.354 35.056C317.394 35.056 316.074 34.888 314.61 34.192C313.818 33.808 313.29 33.376 312.594 32.536C311.466 33.568 311.058 33.904 309.906 34.744C309.618 34.96 309.45 35.08 309.234 35.248L308.106 32.632C308.97 32.272 310.17 31.456 311.37 30.4V25.408H310.122C309.498 25.408 309.162 25.432 308.562 25.528ZM348.858 23.56V24.472H351.642C352.674 24.472 353.202 24.448 353.754 24.376V26.368C353.178 26.296 352.53 26.272 351.666 26.272H342.666C342.066 26.272 341.778 26.272 340.914 26.344C340.962 25.816 340.986 25.312 340.986 24.592V22.672C340.986 21.856 340.986 21.736 341.034 20.92C340.77 21.352 340.41 21.784 339.882 22.264C339.546 21.544 339.354 21.256 338.85 20.68C338.634 20.68 338.538 20.68 338.322 20.68H338.01V24.28C338.658 24.064 338.994 23.944 340.29 23.44V25.696C339.258 26.104 339.042 26.176 338.01 26.56V33.208L337.986 33.592C340.722 32.872 342.162 31.552 342.666 29.32H341.226C340.554 29.32 340.146 29.344 339.594 29.368V27.064C340.17 27.136 340.65 27.16 341.418 27.16H348.978C349.866 27.16 350.346 27.136 350.898 27.088C350.778 27.496 350.754 27.592 350.682 27.808C350.514 28.408 350.37 28.84 350.178 29.344H352.026C352.842 29.344 353.322 29.32 353.73 29.272C353.61 29.872 353.538 30.304 353.49 30.568C353.178 32.56 352.818 33.808 352.362 34.408C351.834 35.128 351.114 35.392 349.674 35.392C349.002 35.392 348.018 35.344 347.01 35.248C346.914 34.288 346.77 33.76 346.434 32.992C347.658 33.208 348.402 33.28 349.17 33.28C349.914 33.28 350.106 33.208 350.346 32.848C350.538 32.512 350.586 32.344 350.85 31.36H348.498C347.946 31.36 347.466 31.384 347.058 31.408C347.37 30.76 347.562 30.232 347.826 29.32H345.066C344.754 30.928 344.154 32.2 343.17 33.28C342.186 34.36 341.034 35.08 339.186 35.752C338.802 34.984 338.418 34.384 337.962 33.808C337.842 34.624 337.578 34.96 336.858 35.176C336.21 35.392 335.61 35.464 334.698 35.464C334.41 35.464 334.098 35.44 333.498 35.416C333.426 34.456 333.306 33.928 332.994 33.016C333.666 33.112 334.29 33.16 334.842 33.16C335.418 33.16 335.562 33.016 335.562 32.488V27.4C334.986 27.568 334.818 27.64 334.314 27.784C333.954 27.88 333.594 28.024 333.21 28.192L332.754 25.6C333.522 25.528 334.074 25.408 335.562 25V20.68H334.674C334.074 20.68 333.546 20.704 333.018 20.776V18.328C333.57 18.424 334.026 18.448 334.698 18.448H335.562V16.696C335.562 15.616 335.514 15.088 335.418 14.344H338.154C338.034 15.064 338.01 15.688 338.01 16.672V18.448H338.322C338.874 18.448 339.186 18.424 339.594 18.376V19.264C341.034 17.632 342.066 15.832 342.498 14.08L344.946 14.608C344.49 15.688 344.346 15.976 343.986 16.552H346.818C347.298 15.832 347.586 15.256 347.898 14.32L350.322 14.776C349.794 15.712 349.602 16.072 349.266 16.552H351.522C352.53 16.552 353.082 16.528 353.61 16.456V18.496C353.034 18.448 352.554 18.424 351.81 18.424H348.858V19.336H350.754C351.93 19.336 352.362 19.312 352.89 19.264V21.064C352.362 21.016 351.858 20.992 350.754 20.992H348.858V21.904H350.754C351.93 21.904 352.362 21.88 352.89 21.832V23.632C352.434 23.584 351.882 23.56 350.754 23.56H348.858ZM346.65 23.56H343.242V24.472H346.65V23.56ZM346.65 21.904V20.992H343.242V21.904H346.65ZM346.65 19.336V18.424H343.242V19.336H346.65ZM360.57 27.76C362.826 27.76 364.626 29.584 364.626 31.816C364.626 34.072 362.802 35.896 360.57 35.896C358.338 35.896 356.514 34.072 356.514 31.816C356.514 29.584 358.338 27.76 360.57 27.76ZM360.57 29.632C359.37 29.632 358.386 30.616 358.386 31.816C358.386 33.04 359.37 34.024 360.57 34.024C361.77 34.024 362.754 33.04 362.754 31.816C362.754 30.616 361.77 29.632 360.57 29.632Z" fill="#13132D"/>
</svg>
